<?xml version="1.0" encoding="UTF-8"?>
<svg width="1024" height="755" viewBox="0 0 270.93335 199.76041" xmlns="http://www.w3.org/2000/svg">
<g transform="translate(35.022 -39.961)">
<g transform="matrix(3.4316 0 0 3.4316 -300.07 -188.21)" clip-rule="evenodd" fill-rule="evenodd">
<g transform="matrix(.44923 0 0 .44892 63.686 51.55)">
<path d="m122.35 33.286c-16.731 0-32.591 6.3501-44.694 17.88h-43.149a0.67 0.67 0 0 0 -0.4849 0.20706l-0.71305 0.74588c-3.232 3.379-3.2981 6.98-3.0501 8.827 0.323 2.402 1.53 4.502 3.155 5.497 0.146 0.149 0.47704 0.87709 0.57104 1.6041l0.019 0.15496c3e-3 0.03 9e-3 0.06 0.017 0.089l0.041 0.15797c0.22 0.853 5.405 20.935 7.239 27.27 1.833 6.332 5.779 8.0491 8.632 7.5981h2.4329c-2.347 7.512 0.14903 13.084 1.692 15.57-2.132 2.047-2.308 4.0679-2.308 4.6659v11.242c0 3.857 1.72 5.3999 2.785 5.9879 3.576 2.822 8.609 4.3141 14.565 4.3141 2.588 0 4.956-0.50808 7.054-1.4981 12.129 12.307 28.936 19.359 46.198 19.359 16.904 0 32.881-6.4631 45.025-18.197h14.48c1.973 0 3.693-0.69888 4.977-2.0229 2.416-2.492 2.3119-6.2951 2.3069-6.4551v-28.334l-2e-3 -0.32407c0-0.209-2e-3 -0.52705 0.0101-0.81605a4.824 4.824 0 0 0 3.059 -1.543c0.729-0.783 1.246-1.832 1.539-3.123h1.8709c2.898 0 4.6211-1.281 5.5591-2.357 2.145-2.464 1.9979-5.8901 1.8929-6.9411v-25.166c0-2.618 0.43598-3.196 0.98999-3.927 0.74-0.98 1.861-2.4601 1.861-5.6371-3e-3 -5.713-4.1569-7.787-6.9499-7.787h-32.82c-11.982-10.99-27.525-17.042-43.801-17.042zm-2e-3 1.3421c16.025 0 31.328 5.988 43.088 16.863a0.664 0.664 0 0 0 0.45493 0.178h33.078c2.254 0 5.6051 1.716 5.6051 6.443 2e-3 2.728-0.88113 3.893-1.5881 4.83-0.65001 0.857-1.2639 1.668-1.2639 4.737v25.196c0 0.023 2e-3 0.04702 4e-3 0.07003 0.092 0.871 0.24801 3.8761-1.566 5.9601-0.752 0.86503-2.152 1.896-4.545 1.896h-2.422a0.673 0.673 0 0 0 -0.662 0.55899c-0.217 1.287-0.65809 2.2951-1.3091 2.9921a3.54 3.54 0 0 1 -2.654 1.146l-0.053 2e-3h-2e-3a0.673 0.673 0 0 0 -0.64603 0.55493c-0.072 0.408-0.074 1.0021-0.072 1.5761l2e-3 0.32001v28.354c4e-3 0.162 0.094 3.414-1.928 5.5-1.025 1.057-2.412 1.6149-4.014 1.6149h-14.748a0.667 0.667 0 0 0 -0.46894 0.1911c-11.916 11.609-27.645 18.004-44.289 18.004-17.062 0-33.673-7.0311-45.575-19.293a0.673 0.673 0 0 0 -0.78894 -0.1289c-2.013 1.037-4.331 1.5619-6.888 1.5619-5.675 0-10.439-1.404-13.778-4.059a0.566 0.566 0 0 0 -0.1021 -0.0679c-0.795-0.424-2.128-1.6151-2.128-4.8341v-11.242c0-0.35 0.11012-2.1911 2.2751-4.0431a0.673 0.673 0 0 0 0.11987 -0.88698c-1.414-2.09-4.3969-7.8121-1.5589-15.752a0.671 0.671 0 0 0 -0.63203 -0.89601h-3.41a0.719 0.719 0 0 0 -0.11294 0.0101c-2.313 0.395-5.5821-1.1071-7.1841-6.6391-1.829-6.317-7.009-26.381-7.229-27.231l-0.0291-0.1149-0.014-0.11806c-0.086-0.663-0.48492-2.151-1.1779-2.567-1.3-0.78-2.277-2.5219-2.549-4.5469-0.21601-1.607-0.15406-4.747 2.6889-7.72l0.51607-0.53896h43.127a0.67 0.67 0 0 0 0.46487 -0.18703c11.876-11.409 27.49-17.693 43.964-17.693zm2e-3 1.747c-16.945 0-32.294 6.828-43.452 17.881h-43.359c-3.691 3.859-2.181 8.557-0.50298 9.564s2.014 3.859 2.014 3.859 5.37 20.806 7.215 27.183c1.846 6.376 5.3701 5.3701 5.3701 5.3701h7.383c-6.544 12.08 1.51 19.295 1.51 19.295-3.691 1.846-3.691 4.0271-3.691 4.0271v11.242c0 3.021 1.3421 3.357 1.3421 3.357 2.014 1.678 5.8729 3.8569 12.92 3.8569 3.664 0 6.101-1.178 7.599-2.311 11.294 12.393 27.565 20.172 45.653 20.172 17.105 0 32.588-6.9571 43.77-18.195h15.736c4.363 0 4.195-5.371 4.195-5.371v-28.355c0-1.845-0.16798-4.195 2.518-4.195 2.684 0 2.35-4.6991 2.35-4.6991h4.6969c5.201 0 4.3631-6.0399 4.3631-6.0399l-2e-3 -25.337c0-6.712 2.8519-4.866 2.8519-9.564s-3.8589-4.698-3.8589-4.698h-34.029c-11.08-10.559-26.078-17.042-42.592-17.042zm-3.9589 5.374-2.6561 3.493 3.8431 4.006-2.0211 0.27106-2.7689-2.988-0.63203 0.85295 0.342 2.546-1.572 0.21098-1.01-7.5229 1.572-0.21007 0.41097 3.0591 2.46-3.4451zm6.3081 0.02982c0.0363 3.78e-4 0.0728 0.0014 0.10978 0.0032 0.83399 0.04 1.832 0.62802 1.773 1.842-0.051 1.066-1.0279 1.58-1.3419 1.745l1.012 1.382c0.205-0.287 0.36901-0.64901 0.45101-1.227l1.3089 0.06295c-0.145 1.02-0.43792 1.5981-0.97493 2.2391l1.2909 1.724-1.783-0.08599-0.48595-0.66907c-0.465 0.423-1.064 0.79606-2.205 0.74106-1.448-0.07-2.317-1.138-2.262-2.268 0.035-0.729 0.26893-1.437 1.5619-2.137l0.16399-0.08689c-0.298-0.374-0.63999-0.96204-0.60899-1.617 0.0475-1.0027 0.86457-1.6599 1.9902-1.6482zm8.1838 0.81123 2.242 0.57691-0.15993 6.137 0.019 5e-3 2.8029-5.457 2.2211 0.57209-1.891 7.3499-1.433-0.36789 1.58-6.143-0.02-5e-3 -2.9531 5.789-1.5059-0.38702 0.24005-6.487-0.0211-6e-3 -1.58 6.143-1.4339-0.3691zm-8.2418 0.30751c-0.30181 0.01004-0.56148 0.2076-0.58023 0.58354-0.012 0.254 0.16203 0.56888 0.50403 0.97688 0.412-0.234 0.722-0.51495 0.74-0.90595 0.021-0.423-0.24396-0.63701-0.60296-0.65401-0.0204-1e-3 -0.0407-0.0011-0.0608-4.52e-4zm-17.029 0.77042 4.6701 6.554-1.656 0.47707-0.89993-1.369-2.691 0.77494-0.0761 1.65-1.605 0.46201 0.49996-8.042zm-5.947 1.9 0.55508 1.222-3.667 1.664 0.65898 1.455 3.3701-1.53 0.55402 1.222-3.369 1.53 0.81288 1.7899 3.831-1.739 0.55508 1.2231-5.2461 2.381-3.137-6.9121zm5.5371 0.0011-0.02 6e-3 -0.10406 3.154 1.859-0.53595zm16.832 0.44996c-0.645 0.424-0.92996 0.622-0.95896 1.224-0.014 0.296 0.18294 1.015 1.0699 1.057 0.486 0.024 0.93305-0.2509 1.197-0.4709zm19.826 0.06987c0.66613 9e-3 1.2452 0.20134 1.5895 0.35509 0.916 0.41 3.1499 1.8861 1.6949 5.1371-1.455 3.251-4.0449 2.5679-4.9609 2.1569-0.916-0.41-3.152-1.8859-1.695-5.1369 0.90938-2.0325 2.2614-2.5271 3.3716-2.5122zm0.18237 1.4014c-0.70105 0.01382-1.5098 0.42568-2.1059 1.7587-0.87 1.939 0.0149 2.9141 0.79693 3.2641 0.78099 0.349 2.098 0.359 2.965-1.58 0.869-1.939-0.0159-2.9151-0.79692-3.2641-0.24406-0.10906-0.54046-0.18503-0.85912-0.17875zm-48.564 0.94676 0.70311 1.143-1.9541 1.202 3.272 5.321-1.35 0.83096-3.2729-5.321-1.9541 1.2011-0.70401-1.1431zm55.095 0.76003 3.215 2.094c1.691 1.103 1.1871 2.5541 0.83006 3.1031-0.455 0.7-1.203 1.0709-1.969 0.87388 0.371 0.571 0.52689 0.95003-0.24411 2.137-0.607 0.93-0.75603 1.1601-0.54303 1.4511l-0.10888 0.16791-1.4711-0.95791c0.107-0.358 0.26913-0.7211 0.69513-1.3761 0.566-0.868 0.73191-1.239-0.25209-1.88l-1.3729-0.8941-1.6211 2.4891-1.301-0.84813zm0.58505 1.947-1.1071 1.7 1.558 1.0159c0.692 0.45 1.184 0.43007 1.594-0.19893 0.218-0.336 0.39002-0.93099-0.38898-1.438zm-28.808 1.8319a44.934 44.934 0 0 1 24.129 6.9841h-4.588a42.62 42.62 0 0 0 -19.541 -4.7171 42.612 42.612 0 0 0 -19.542 4.7171h-4.587a44.937 44.937 0 0 1 24.129 -6.9841zm-33.637 0.34967c0.8496-0.0093 1.5009 0.44228 1.853 0.8674l-1.1839 0.957c-0.246-0.236-0.84905-0.7811-1.926 0.0899-0.468 0.379-0.88794 1.0031-0.45494 1.5381 0.372 0.46 0.82996 0.25298 1.123 0.11098l1.724-0.81003c0.965-0.454 1.9701-0.72398 2.8281 0.33702 1.436 1.775-0.2461 3.3939-0.7641 3.8119-2.153 1.742-3.527 0.80007-4.119 0.06807l1.183-0.95505c0.274 0.322 0.94392 0.81308 2.0209-0.05692 0.583-0.472 1.12-1.1371 0.61502-1.7621-0.372-0.46-0.91596-0.22493-1.66 0.13207l-0.75205 0.36398c-1.133 0.549-2.227 1.0799-3.277-0.21911-0.532-0.657-1.1159-2.1019 0.80009-3.6509 0.7345-0.59394 1.4086-0.81602 1.9899-0.82238zm68.832 0.64844 4.189 3.6869-0.88608 1.0081-3.024-2.6611-1.054 1.1981 2.777 2.445-0.88698 1.0079-2.777-2.445-1.299 1.477 3.158 2.779-0.88698 1.0081-4.3241-3.806zm-35.195 2.6109a41.304 41.304 0 0 1 16.394 3.375h-32.789a41.309 41.309 0 0 1 16.395 -3.375zm51.192 2.8632c0.0575 6.1e-4 0.11633 0.0035 0.17664 0.0087 1.93 0.168 4.027 0.50303 7.047 0.08403l11.346 18.038v-11.83s0.14806-2.853-1.9489-3.608c-2.67-0.961-1.93-2.853-0.084-2.601 1.846 0.252 3.7751 0.25188 5.6211 0.08388 1.846-0.168 2.4339 1.007 0.92387 2.181-1.512 1.175-1.7619 1.5101-1.7619 3.9431v28.861s-0.84002 1.1741-2.098-0.83894c-1.26-2.013-14.934-23.659-14.934-23.659v18.541s-0.168 2.3491 2.014 2.9371c2.18 0.587 2.6001 3.104 0.1661 3.021-2.432-0.084-8.3051-0.08399-10.906 0.16701-2.6 0.252-2.4339-0.67113-3.0199-2.0971-0.588-1.427-3.9431-9.2289-3.9431-9.2289s-0.33591-1.6789-2.1819-1.6789v7.2999s-0.31596 2.0991 1.258 2.8531c1.929 0.923 1.511 2.9359-0.084 2.7689 0 0-5.8731-0.25188-7.8851-0.08388-2.014 0.167-1.93-1.7621-0.75596-2.3491s1.258-1.594 1.258-3.608v-18.625s0.25203-1.3419-1.09-2.1819c-1.342-0.839-1.258-2.685 0.42-2.601s6.3749 0.16803 9.3119 0.08403c2.936-0.084 9.061 0.75501 9.061 7.383 0 0 0.33591 5.202-4.4471 7.719 0 0 3.8591 8.054 4.4471 9.564s1.174 2.3489 2.35 2.3489c1.174 0 2.098-0.75504 2.098-3.439v-23.491s0.586-1.8459-2.014-2.8529c-2.5207-0.97553-2.1265-3.1318-0.3447-3.1129zm-132.63 0.39982h10.067s1.902 0.67196 0.89496 1.902-1.7889 0.6711-1.3419 3.0201c0.447 2.349 3.9149 16.779 3.9149 16.779l4.251-14.542s-0.78299-3.4679-2.573-4.2509c-1.789-0.783-1.789-2.9081 0-2.9081h9.396s3.0201 0.224 1.7901 2.014c0 0-2.125 0.89406-2.125 1.9011l4.5859 17.674 3.8041-15.213s0.89597-2.5731-1.23-3.9151-0.78293-2.461 0.33507-2.461h5.257s2.237 0.336 0.89496 2.014-1.901 1.9009-2.461 3.5789l-0.0401 0.1271a3.14 3.14 0 0 1 0.93502 -0.1271h15.102c0 1e-6 0.89406 0.33608 0.89406 2.2381v2.9079s-0.55907 2.5721-2.3491 0.33506c-1.79-2.237-3.1319-3.468-4.3629-3.468-1.23 0-1.7891 0.78398-1.7881 2.125 0 0.537-0.0189 4.2509-0.0399 8.5109 1.106-0.089 2.643-0.49588 3.06-2.0229 0.671-2.461 3.132-2.4611 3.132 0.22393v6.712s-1.872 3.0591-3.132 0.22408c-1.119-2.517-1.1521-2.6261-3.0731-2.5921l-0.0599 11.429s2.6839 1.789 4.5859-1.902 3.9161-4.138 3.9161-0.67103v3.691s-1e-4 2.35-2.4611 2.35h-14.766s-1.454-1.006 0.11204-2.237 1.454-1.2309 1.454-3.8039v-19.464s0.55904-1.566-0.89496-2.125c-0.321-0.123-0.5829-0.31409-0.7769-0.53309-1.772 6.389-6.941 25.814-6.941 25.814s-0.672 2.014-2.014 2.014c-1.343 0-1.6781 0.67099-2.3491-2.796-0.671-3.468-5.146-18.57-5.146-18.57l-5.481 19.8s-0.448 1.902-2.014 1.902c-1.565 0-1.342-0.672-2.125-3.021-0.783-2.349-7.271-26.4-7.271-26.4s-0.559-2.796-2.014-3.691c-1.454-0.895-1.006-2.573 0.448-2.573zm62.643 5.033c3.244 0 6.824 1.5659 6.824 4.3629v3.803s-0.33506 1.566-1.3421 1.566-1.902-1.007-2.461-2.573c-0.559-1.566-1.6781-4.251-3.3561-4.251s-3.6909 1.454-0.67088 5.257c3.02 3.803 9.1719 8.3901 9.1719 13.424s-2.9079 9.396-7.6069 9.396c-4.698 2e-3 -8.39-1.228-8.39-3.354v-4.8111s0.67104-4.921 3.133-0.55899c2.461 4.362 3.02 5.9291 5.146 5.9291s3.691-3.3561 0.56005-6.9361c-3.133-3.58-9.0621-7.6069-9.0621-13.871 0-4.698 4.251-7.383 8.054-7.383zm11.186 0.22498h14.99s1.566-1.6e-5 1.566 2.125v4.698s-1.4549 1.4541-2.5739-0.78292c-1.209-2.42-1.2301-3.691-4.0271-3.355v21.254s-0.037 2.2571 1.119 2.7971c1.678 0.783 1.455 2.796 0 2.796h-8.613s-2.349-1.0071 0-2.4611c0 0 1.287 7.3e-5 1.287-3.2449v-20.918s-2.069-0.44697-2.965 1.678c-0.895 2.125-1.5649 2.35-2.3489 2.35s-0.78308-0.896-0.78308-2.014v-3.3559s0.22407-1.566 2.3491-1.566zm19.017 0.33491h15.102c0 1e-6 0.89496 0.33608 0.89496 2.2381v2.9079s-0.56096 2.5721-2.35 0.33506c-1.789-2.237-3.1331-3.468-4.3631-3.468s-1.789 0.78398-1.789 2.125c0 0.537-0.018 4.2509-0.039 8.5109 1.106-0.089 2.6431-0.49588 3.0591-2.0229 0.672-2.461 3.1329-2.4611 3.1329 0.22393v6.712s-1.8729 3.0591-3.1329 0.22408c-1.117-2.517-1.15-2.6261-3.072-2.5921l-0.059 11.429s2.6841 1.789 4.5861-1.902 3.914-4.138 3.914-0.67103v3.691s-1.1e-4 2.35-2.4611 2.35h-14.766s-1.4529-1.007 0.11309-2.237c1.564-1.231 1.4529-1.2309 1.4529-3.8039v-19.464s0.55803-1.566-0.89496-2.125c-1.455-0.559-1.7889-2.4611 0.67208-2.4611zm27.242 2.3167c-0.56274-0.0045-0.95414 0.0884-0.95414 0.0884v10.991c2.769 0 4.9489-0.92306 4.9489-5.9571 0-4.4627-2.5566-5.1108-3.9947-5.1223zm-53.019 33.241c1.0583-5e-3 2.0272 0.38824 1.3061 2.421-0.923 2.602-9.229 23.994-9.229 23.994s3.943 2.2661 6.292-2.8519c0 0 0.613-2.3691 2.181-1.8461 1.259 0.42 1.93 0.75403 1.343 2.098-0.588 1.342-1.343 4.109-1.343 4.109s-0.084 1.428-2.014 1.26-8.809-0.33603-11.158-0.084c-2.349 0.252-2.014-0.84003-2.014-1.678 0-0.84001 0.31909-1.859 1.2591-4.027 1.092-2.518 8.6439-21.479 8.6439-21.479s-3.8589-0.58594-5.3699 2.1821c-1.51 2.77-3.021 2.518-3.021 0.33596v-3.691s0.25201-0.84006 2.181-0.58806c1.93 0.252 8.8099 0.084 10.068-0.084 0.27519-0.0367 0.57861-0.0695 0.87493-0.0709zm17.514 0c1.0583-5e-3 2.0274 0.38824 1.3071 2.421-0.924 2.602-9.2289 23.994-9.2289 23.994s3.944 2.2661 6.292-2.8519c0 0 0.61506-2.3691 2.1821-1.8461 1.26 0.42 1.9299 0.75403 1.3439 2.098-0.588 1.342-1.3439 4.109-1.3439 4.109s-0.084 1.428-2.014 1.26-8.809-0.33603-11.158-0.084c-2.349 0.252-2.014-0.84003-2.014-1.678 0-0.84001 0.31794-1.859 1.2589-4.027 1.091-2.518 8.641-21.479 8.641-21.479s-3.859-0.58594-5.369 2.1821c-1.51 2.77-3.021 2.518-3.021 0.33596v-3.691s0.25201-0.84006 2.181-0.58806c1.93 0.252 8.81 0.084 10.068-0.084 0.27519-0.0367 0.57845-0.0695 0.87478-0.0709zm35.236 0.0554c0.0558 6.2e-4 0.11308 4e-3 0.17168 9e-3 1.877 0.162 3.916 0.48797 6.852 0.08l11.031 17.537v-11.5s0.14291-2.773-1.8961-3.508c-2.596-0.936-1.8749-2.773-0.0819-2.529 1.795 0.246 3.6699 0.24607 5.4649 0.0821 1.795-0.162 2.3651 0.97892 0.89813 2.1209-1.469 1.143-1.7131 1.469-1.7131 3.834v28.057s-0.816 1.141-2.039-0.81606c-1.225-1.957-14.52-23-14.52-23v18.025s-0.16197 2.283 1.959 2.854c2.121 0.572 2.527 3.02 0.16204 2.938 0 0-4.4241-0.23808-5.9471-0.0211-1.521 0.21701-1.4799-1.536-0.088-2.183 1.035-0.48001 2.039-0.73402 2.039-3.344v-22.836s0.57008-1.795-1.9569-2.773c-2.45-0.9484-2.0668-3.0455-0.33582-3.0266zm-22.328 0.0518c1.2693 2e-3 1.6722 1.3826 0.83668 2.1438-0.922 0.84-1.7621 0.67297-1.7621 2.77v19.043s-0.084 1.848 1.678 1.848c1.762 0 2.854-1.512 3.775-3.525 0.924-2.014 1.174-1.5939 2.014-1.3419 0.838 0.252 1.3419 0.41988 1.0059 1.6779-0.334 1.258-0.92191 4.0271-0.92191 4.0271s-0.16803 2.182-2.518 1.93-8.389-0.16794-11.494 0.16806c-3.104 0.336-2.0141-1.8461-0.92206-2.3501 1.09-0.502 1.258-2.014 1.258-3.188v-18.039s0.084-2.0139-1.258-2.5159c-1.342-0.504-1.4259-2.77 0.5861-2.518 2.016 0.252 5.7049 0.25197 7.3009-0.084 0.14943-0.0315 0.29005-0.046 0.42135-0.0458zm-48.237 0.0352c1.2321-0.023 1.3883 1.2723 0.58068 1.8586-0.923 0.671-1.091 1.3409-1.091 1.8449v20.053s-0.33497 1.93 1.091 2.768c1.426 0.84001 1.091 2.1819-0.33597 2.1819-1.426 0-5.0339-0.16797-7.2149 0.084-2.182 0.252-2.1821-1.342-0.92312-2.35 1.259-1.006 0.92312-3.0201 0.92312-4.0271v-17.449s-0.0841-2.3499-1.1751-2.6859c-1.091-0.336-1.258-2.35 0.41999-2.098s5.3691 0.41997 7.1311-0.084c0.22025-0.063 0.41822-0.0932 0.59423-0.0965zm66.013 0c1.2321-0.023 1.3885 1.2723 0.58173 1.8586-0.924 0.671-1.0919 1.3409-1.0919 1.8449v20.053s-0.33607 1.93 1.0919 2.768c1.426 0.84001 1.09 2.1819-0.33597 2.1819s-5.035-0.16797-7.2149 0.084c-2.182 0.252-2.182-1.342-0.92403-2.35 1.258-1.006 0.92403-3.0201 0.92403-4.0271v-17.449s-0.084-2.3499-1.176-2.6859c-1.09-0.336-1.258-2.35 0.42-2.098s5.3689 0.41997 7.1309-0.084c0.22025-0.063 0.41821-0.0932 0.59423-0.0965zm-86.312 0.12861c3.666 0 7.711 1.7289 7.711 4.8139v4.1991s-0.3789 1.7289-1.5169 1.7289-2.1491-1.111-2.7811-2.84-1.896-4.691-3.792-4.691-4.171 1.604-0.75897 5.803c3.414 4.197 10.366 9.26 10.366 14.814 0 5.557-3.286 10.371-8.596 10.371-5.309 9.9e-4 -9.481-1.357-9.481-3.703v-5.3091s0.75809-5.434 3.5401-0.61697c2.781 4.814 3.4129 6.543 5.8149 6.543s4.171-3.7031 0.63203-7.6541c-3.54-3.951-10.239-8.396-10.24-15.311 0-5.186 4.804-8.1479 9.102-8.1479zm26.868 34.03h4.2659a42.618 42.618 0 0 0 21.352 5.7051 42.617 42.617 0 0 0 21.351 -5.7051h4.2661c-7.277 5.026-16.103 7.9711-25.617 7.9711a44.939 44.939 0 0 1 -25.618 -7.9711zm7.1029 0h37.028a41.283 41.283 0 0 1 -18.514 4.3611 41.283 41.283 0 0 1 -18.514 -4.3611zm-13.357 3.4291 3.149 2.1909c1.657 1.154 1.109 2.59 0.73503 3.127-0.477 0.685-1.2351 1.033-1.9961 0.81198 0.355 0.582 0.49909 0.96705-0.30991 2.129-0.634 0.913-0.7911 1.1369-0.5861 1.4339l-0.1149 0.1661-1.4401-1.004c0.118-0.356 0.28999-0.71111 0.73699-1.3541 0.591-0.85 0.76904-1.2169-0.19396-1.8869l-1.3451-0.93607-1.6968 2.4381-1.275-0.88909zm62.868 0.67796 0.74196 1.119-1.914 1.268 3.4511 5.207-1.322 0.87704-3.449-5.2091-1.9151 1.2671-0.74001-1.119zm-62.342 1.283-1.16 1.666 1.527 1.062c0.677 0.473 1.1689 0.46697 1.5979-0.14803 0.23-0.33 0.4201-0.91798-0.3429-1.449zm5.5289 2.123 4.971 2.537-0.61004 1.198-3.5869-1.8319-0.726 1.4219 3.2949 1.681-0.60989 1.196-3.2951-1.682-0.8939 1.752 3.747 1.912-0.61109 1.1949-5.1309-2.6189zm51.184 0.2819 3.332 6.8201-1.4261 0.69498-5.1579-3.5041-0.02 0.0101 2.375 4.863-1.3281 0.651-3.332-6.821 1.5-0.73202 5.027 3.4259 0.02-0.01-2.32-4.748zm-44.043 3.1318c0.0412-9.1e-4 0.0831-8.7e-4 0.12574 0 0.38215 8e-3 0.82305 0.0884 1.3308 0.2682 2.192 0.775 2.2721 2.418 1.9711 3.299l-1.436-0.50794c0.073-0.334 0.22195-1.1331-1.083-1.5961-0.568-0.20099-1.319-0.22991-1.549 0.41609-0.198 0.559 0.21804 0.84004 0.49304 1.016l1.592 1.0469c0.892 0.584 1.6469 1.3011 1.1919 2.5861-0.762 2.152-3.022 1.564-3.649 1.344-2.611-0.926-2.526-2.5901-2.211-3.4771l1.433 0.51005c-0.131 0.4-0.20011 1.229 1.1049 1.691 0.708 0.25 1.555 0.3591 1.823-0.3959 0.198-0.559-0.28695-0.89814-0.98095-1.3461l-0.70311-0.45087c-1.061-0.68-2.085-1.334-1.527-2.9081 0.21343-0.6032 0.79643-1.4671 2.0735-1.4952zm35.394 0.66425 4.873 6.403-1.638 0.52903-0.94405-1.3401-2.6661 0.86002-0.0229 1.65-1.5901 0.51397 0.24607-8.055zm-30.742 0.92795 6.0319 1.313-0.28492 1.3119-2.2411-0.48792-1.329 6.105-1.549-0.33703 1.3281-6.1039-2.2411-0.48805zm24.125 0.90038c1.5769-0.0312 2.0923 1.1792 2.1929 1.7646 0.14 0.823-0.15504 1.6021-0.85204 1.9791 0.66 0.166 1.0331 0.3379 1.2731 1.7339 0.188 1.094 0.23291 1.3661 0.58791 1.4341l0.033 0.19698-1.7289 0.29696c-0.166-0.337-0.29502-0.71197-0.42602-1.482-0.176-1.021-0.30503-1.4059-1.461-1.209l-1.6149 0.27694 0.49996 2.9279-1.531 0.26204-1.2799-7.4839 3.783-0.64603c0.18657-0.0319 0.36093-0.0484 0.52406-0.0516zm6.2659 0.0846-0.02 5e-3 -4e-3 3.157 1.842-0.59393zm-22.521 0.49394 1.819 0.18312 1.897 7.8209-1.7151-0.17393-0.32497-1.606-2.788-0.281-0.68292 1.504-1.6621-0.16791zm10.732 0.24305 0.14396 4.9361c0.057 1.996-1.123 2.8869-3.035 2.9409-0.697 0.021-1.738-0.11893-2.436-0.84993-0.426-0.453-0.60404-1.061-0.64604-1.82l-0.14502-5.0309 1.617-0.045 0.14291 4.924c0.029 1.057 0.65613 1.504 1.3961 1.482 1.088-0.031 1.5159-0.57204 1.4899-1.492l-0.14502-4.998zm5.23 0.54801c-0.0956-9.4e-4 -0.20029 7e-3 -0.31504 0.0269l-1.947 0.33401 0.34199 2 1.834-0.31398c0.812-0.139 1.1599-0.48902 1.0329-1.227-0.0586-0.34737-0.27799-0.81338-0.94691-0.81996zm-15.251 1.002-1.2699 2.888 1.925 0.19592-0.63398-3.082z" fill="#501616"/>
<g transform="translate(21.662 1.7447)" clip-rule="evenodd" fill="#fff" fill-rule="evenodd">
<path transform="matrix(.077102 0 0 .077102 65.782 53.103)" d="m401.33-169.88-26.355 3.541-31.906 44.68-5.3301-39.674-20.389 2.7246 13.1 97.57 20.389-2.7363-4.4356-33.021 8.1973-11.062 35.912 38.754 26.213-3.5156-49.844-51.957zm81.814 0.38672c-14.599-0.152-25.197 8.3727-25.812 21.377-0.40206 8.4952 4.0334 16.122 7.8984 20.973l-2.127 1.127c-16.77 9.0788-19.804 18.262-20.258 27.717-0.71334 14.656 10.558 28.508 29.338 29.416 14.798 0.71334 22.567-4.1251 28.598-9.6113l6.3027 8.6777 23.125 1.1152-16.742-22.361c6.9648-8.3136 10.764-15.81 12.645-29.039l-16.977-0.81641c-1.0635 7.4965-3.1908 12.192-5.8496 15.914l-13.125-17.924c4.0725-2.14 16.743-8.807 17.404-22.633 0.76522-15.745-12.179-23.372-22.996-23.891-0.47907-0.0231-0.95289-0.0361-1.4238-0.041zm106.14 10.521-24.553 95.34 18.6 4.7871 20.492-79.674 0.27148 0.0781-3.1113 84.135 19.531 5.0195 38.301-75.082 0.25976 0.0645-20.492 79.674 18.584 4.7715 24.527-95.328-28.807-7.418-36.354 70.775-0.2461-0.06445 2.0742-79.596zm-106.89 3.9883c0.26097-9e-3 0.524-7e-3 0.78907 6e-3 4.6561 0.22048 8.0927 2.9962 7.8203 8.4824-0.23346 5.0712-4.2541 8.7151-9.5977 11.75-4.4357-5.2917-6.6927-9.3776-6.5371-12.672 0.24319-4.8758 3.611-7.4362 7.5254-7.5664zm-220.87 9.9922-22.801 6.5762-6.4844 104.3 20.816-5.9922 0.98633-21.4 34.9-10.051 11.674 17.756 21.479-6.1875zm-77.131 24.643-65.912 29.908 40.686 89.646 68.041-30.881-7.1992-15.861-49.688 22.555-10.543-23.217 43.693-19.844-7.1836-15.848-43.709 19.844-8.5469-18.871 47.561-21.582zm71.814 0.0137 22.502 34.033-24.111 6.9512 1.3496-40.906zm218.31 5.8359 16.965 23.475c-3.424 2.8533-9.2221 6.4206-15.525 6.1094-11.504-0.54473-14.059-9.8699-13.877-13.709 0.37613-7.8078 4.072-10.376 12.438-15.875zm257.13 0.90625c-14.399-0.19404-31.934 6.221-43.729 32.582-18.897 42.165 10.104 61.307 21.984 66.625 11.88 5.3306 45.471 14.19 64.342-27.975 18.871-42.165-10.102-61.309-21.982-66.627-4.4648-1.9941-11.976-4.489-20.615-4.6055zm2.3652 18.176c4.1329-0.08147 7.9772 0.90384 11.143 2.3184 10.129 4.5264 21.607 17.186 10.336 42.334-11.245 25.148-28.326 25.019-38.455 20.492-10.142-4.5394-21.62-17.186-10.336-42.334 7.7308-17.29 18.22-22.631 27.312-22.811zm-629.86 12.279-68.221 41.943 9.1309 14.824 25.344-15.576 42.449 69.012 17.51-10.777-42.437-69.012 25.344-15.59zm714.57 9.8574-53.734 82.486 16.873 10.998 21.025-32.281 17.807 11.596c12.762 8.3136 10.61 13.125 3.2695 24.383-5.5251 8.4952-7.6279 13.203-9.0156 17.846l19.08 12.426 1.4121-2.1797c-2.7626-3.7742-0.82968-6.7565 7.043-18.818 9.9997-15.395 7.9778-20.311 3.166-27.717 9.9348 2.555 19.636-2.2571 25.537-11.336 4.6302-7.1204 11.166-25.938-10.766-40.244zm7.5859 25.252 21.479 13.994c10.103 6.5757 7.8723 14.293 5.0449 18.65-5.3176 8.158-11.699 8.4165-20.674 2.5801l-20.207-13.176zm-809.9 28.295c-7.5394 0.082451-16.282 2.9628-25.809 10.666-24.85 20.09-17.277 38.83-10.377 47.352 13.618 16.848 27.807 9.9622 42.502 2.8418l9.7539-4.7227c9.6495-4.6302 16.705-7.677 21.529-1.7109 6.5497 8.1061-0.41519 16.732-7.9766 22.854-13.968 11.284-22.657 4.9145-26.211 0.73828l-15.344 12.387c7.6781 9.4939 25.498 21.711 53.422-0.88281 6.7183-5.4214 28.535-26.418 9.9102-49.439-11.128-13.761-24.164-10.259-36.68-4.3711l-22.359 10.504c-3.8001 1.8417-9.7397 4.5266-14.564-1.4395-5.6159-6.9388-0.16946-15.032 5.9004-19.947 13.968-11.297 21.79-4.2269 24.98-1.166l15.355-12.412c-4.5666-5.5138-13.014-11.371-24.033-11.25zm892.73 8.4082-65.029 73.902 56.082 49.363 11.504-13.074-40.959-36.043 16.848-19.156 36.018 31.711 11.504-13.072-36.018-31.711 13.67-15.539 39.221 34.514 11.492-13.074zm207.48 71c-23.109-0.24554-28.222 27.721 4.4707 40.373 33.721 13.061 26.121 37.002 26.121 37.002v304.67c0 34.811-11.984 44.604-27.211 44.604-15.252 0-22.852-10.88-30.478-30.465-7.6262-19.584-57.678-124.04-57.678-124.04 62.034-32.645 57.678-100.12 57.678-100.12 0-85.964-79.44-96.845-117.52-95.756-38.092 1.0895-99.01 2e-3 -120.77-1.0879-21.763-1.0895-22.853 22.853-5.4473 33.734 17.405 10.895 14.137 28.299 14.137 28.299v241.56c0 26.121-1.0899 39.182-16.316 46.795-15.227 7.6132-16.316 32.633 9.8047 30.467 26.095-2.1789 102.27 1.0879 102.27 1.0879 20.687 2.166 26.107-23.941 1.0879-35.912-20.414-9.7792-16.314-37.004-16.314-37.004v-94.678c23.942 0 28.299 21.775 28.299 21.775s43.514 101.19 51.141 119.7c7.6003 18.495 5.4466 30.468 39.168 27.199 33.734-3.2554 109.91-3.2555 141.45-2.166 31.568 1.0765 26.12-31.568-2.1543-39.182-28.3-7.6262-26.121-38.094-26.121-38.094v-240.47s177.35 280.74 193.69 306.85c16.316 26.108 27.211 10.883 27.211 10.883v-374.32c0-31.555 3.2413-35.901 22.852-51.141 19.584-15.227 11.96-30.466-11.982-28.287-23.942 2.1789-48.962 2.1805-72.904-1.0879s-33.539 21.27 1.0899 33.734c27.198 9.7922 25.277 46.793 25.277 46.793v153.43l-147.15-233.95c-39.169 5.4343-66.367 1.0891-91.398-1.0898-0.7823-0.06809-1.5456-0.10536-2.291-0.11328zm-1720.2 5.1855c-18.858 0-24.669 21.763-5.8106 33.371 18.871 11.608 26.121 47.871 26.121 47.871s84.147 311.94 94.303 342.4c10.155 30.466 7.2629 39.182 27.561 39.182 20.311 0 26.121-24.67 26.121-24.67l71.088-256.8s58.039 195.87 66.742 240.85c8.7027 44.966 13.048 36.264 30.467 36.264 17.405 0 26.121-26.121 26.121-26.121 0 0 67.039-251.94 90.021-334.8 2.5161 2.8404 5.9148 5.3188 10.078 6.9141 18.858 7.2501 11.607 27.561 11.607 27.561v252.44c0 33.371 1.4532 33.37-18.857 49.336s-1.4531 29.014-1.4531 29.014h191.51c31.919 0 31.92-30.479 31.92-30.479v-47.871c0-44.966-26.123-39.168-50.791 8.7031-24.668 47.871-59.479 24.668-59.479 24.668l0.77734-148.23c24.915-0.44097 25.344 0.97424 39.857 33.619 16.342 36.769 40.621-2.9062 40.621-2.9062v-87.053c0-34.824-31.918-34.825-40.621-2.9062-5.4084 19.805-25.343 25.084-39.687 26.238 0.27236-55.251 0.51758-103.42 0.51758-110.38-0.01297-17.392 7.2386-27.561 23.191-27.561 15.966 0 33.37 15.965 56.586 44.979 23.216 29.013 30.467-4.3457 30.467-4.3457v-37.715c0-24.668-11.596-29.027-11.596-29.027h-195.87a40.725 40.725 0 0 0 -12.127 1.6484l0.51953-1.6484c7.2631-21.763 14.513-24.655 31.918-46.418 17.405-21.763-11.607-26.121-11.607-26.121h-68.182c-14.5 0-31.919 14.513-4.3457 31.918 27.574 17.405 15.953 50.777 15.953 50.777l-49.338 197.31-59.479-229.23c0-13.061 27.561-24.654 27.561-24.654 15.953-23.216-23.217-26.121-23.217-26.121h-121.86c-23.203 0-23.203 27.56 0 37.715 23.216 10.155 33.371 55.135 33.371 55.135l-55.135 188.61s-44.978-187.16-50.775-217.62c-5.7975-30.466 4.3437-23.215 17.404-39.168 13.061-15.953-11.607-24.668-11.607-24.668zm812.46 65.277c-49.324 0-104.46 34.822-104.46 95.754 0 81.243 76.899 133.47 117.53 179.9 40.608 46.432 20.31 89.959-7.2637 89.959s-34.824-20.324-66.742-76.898c-31.932-56.574-40.635 7.25-40.635 7.25v62.398c0 27.574 47.884 43.526 108.82 43.5 60.945 0 98.66-56.573 98.66-121.86 0-65.29-79.788-124.78-118.96-174.11-39.169-49.324-13.062-68.182 8.7012-68.182 21.763 0 36.277 34.824 43.527 55.135s18.857 33.371 31.918 33.371 17.406-20.311 17.406-20.311v-49.324c0-36.276-46.432-56.586-88.506-56.586zm145.08 2.918c-27.561 0-30.467 20.311-30.467 20.311v43.525c0 14.5-0.012 26.121 10.156 26.121 10.168 0 18.857-2.9178 30.465-30.479 11.621-27.561 38.455-21.764 38.455-21.764v271.3c0 42.087-16.691 42.086-16.691 42.086-30.466 18.858 0 31.918 0 31.918h111.71c18.871 0 21.763-26.106 0-36.262-14.993-7.0037-14.514-36.277-14.514-36.277v-275.66c36.276-4.3578 36.55 12.127 52.23 43.514 14.513 29.013 33.383 10.156 33.383 10.156v-60.932c0-27.561-20.311-27.561-20.311-27.561zm246.65 4.3438c-31.919 0-27.588 24.67-8.7168 31.92 18.845 7.2501 11.607 27.561 11.607 27.561v252.44c0 33.371 1.441 33.37-18.844 49.336-20.311 15.953-1.4668 29.014-1.4668 29.014h191.51c31.919 0 31.92-30.479 31.92-30.479v-47.871c0-44.966-26.095-39.168-50.764 8.7031-24.668 47.871-59.48 24.668-59.48 24.668l0.76563-148.23c24.928-0.44097 25.357 0.97424 39.844 33.619 16.342 36.769 40.633-2.9062 40.633-2.9062v-87.053c0-34.824-31.917-34.825-40.633-2.9062-5.3954 19.805-25.331 25.084-39.676 26.238 0.27236-55.251 0.50585-103.42 0.50585-110.38 0-17.392 7.2503-27.561 23.203-27.561s33.385 15.965 56.588 44.979c23.203 29.013 30.479-4.3457 30.479-4.3457v-37.715c0-24.668-11.607-29.027-11.607-29.027zm353.32 30.047c18.652 0.15001 51.811 8.5551 51.811 66.436 0 65.29-28.272 77.262-64.186 77.262v-142.55s5.0764-1.2052 12.375-1.1465zm-687.65 431.13c-3.8432 0.0191-7.7785 0.44328-11.348 0.91992-16.316 2.1789-105.55 4.3582-130.58 1.0898-25.019-3.2684-28.287 7.627-28.287 7.627v47.871c0 28.3 19.597 31.569 39.182-4.3574 19.597-35.9 69.646-28.301 69.646-28.301s-97.946 245.92-112.11 278.58c-12.192 28.118-16.33 41.334-16.33 52.229 0 10.869-4.3449 25.032 26.121 21.764 30.466-3.2684 119.69-1.0891 144.72 1.0898 25.032 2.1789 26.121-16.342 26.121-16.342s9.7918-35.888 17.418-53.293c7.6132-17.431-1.089-21.764-17.418-27.211-20.337-6.7832-28.287 23.941-28.287 23.941-30.466 66.379-81.605 36.99-81.605 36.99s107.73-277.45 119.7-311.2c9.3524-26.365-3.2137-31.469-16.939-31.4zm227.15 0c-3.8434 0.0191-7.7785 0.44328-11.348 0.91992-16.316 2.1789-105.55 4.3582-130.58 1.0898-25.019-3.2684-28.287 7.627-28.287 7.627v47.871c0 28.3 19.597 31.569 39.182-4.3574 19.584-35.9 69.635-28.301 69.635-28.301s-97.922 245.92-112.07 278.58c-12.205 28.118-16.328 41.334-16.328 52.229 0 10.869-4.3449 25.032 26.121 21.764 30.466-3.2684 119.68-1.0891 144.71 1.0898s26.121-16.342 26.121-16.342 9.8054-35.888 17.432-53.293c7.6003-17.431-1.0897-21.764-17.432-27.211-20.324-6.7832-28.299 23.941-28.299 23.941-30.453 66.379-81.605 36.99-81.605 36.99s107.71-277.45 119.7-311.2c9.3423-26.365-3.2268-31.469-16.953-31.4zm457.01 0.71875c-22.451-0.24588-27.422 26.953 4.3535 39.254 32.775 12.684 25.383 35.965 25.383 35.965v296.18c0 33.851-13.022 37.146-26.445 43.371-18.054 8.3915-18.586 31.127 1.1406 28.312 19.753-2.8144 77.131 0.2735 77.131 0.2735 30.674 1.0635 25.409-30.687-2.0996-38.106-27.509-7.4057-25.408-37.016-25.408-37.016v-233.78s172.43 272.92 188.32 298.3c15.862 25.382 26.445 10.584 26.445 10.584v-363.89c0-30.673 3.1661-34.902 22.219-49.727 19.027-14.811 11.632-29.609-11.648-27.508-23.281 2.127-47.598 2.1261-70.879-1.0644-23.255-3.1646-32.607 20.661 1.0625 32.801 26.445 9.5328 24.592 45.498 24.592 45.498v149.15l-143.07-227.45c-38.079 5.2917-64.525 1.064-88.869-1.0371-0.75994-0.0665-1.5023-0.1034-2.2266-0.11133zm-289.59 0.67187c-1.703-3e-3 -3.5267 0.18521-5.4648 0.59375-20.7 4.3578-68.544 4.3582-94.691 1.0898-26.095-3.2684-25.007 26.119-7.6016 32.656 17.405 6.5108 16.316 32.633 16.316 32.633v233.96c0 15.226-2.1794 34.837-16.316 41.348-14.163 6.5368-28.299 34.838 11.959 30.48 40.271-4.3578 118.6-5.4481 149.07-2.1797 30.479 3.2684 32.658-25.031 32.658-25.031s7.6251-35.914 11.957-52.23c4.3578-16.316-2.1782-18.493-13.047-21.762-10.895-3.2684-14.137-8.7168-26.121 17.404-11.945 26.108-26.108 45.719-48.961 45.719-22.853 0-21.764-23.969-21.764-23.969v-246.98c0-27.198 10.895-25.031 22.854-35.926 10.837-9.8732 5.611-27.778-10.852-27.805zm-625.62 0.45704c-2.2829 0.0426-4.8504 0.43485-7.707 1.252-22.853 6.5368-70.725 4.3582-92.488 1.0898-21.763-3.2684-19.597 22.853-5.4473 27.211s15.24 34.836 15.24 34.836v226.31c0 13.061 4.3563 39.183-11.973 52.23-16.329 13.074-16.327 33.747 11.973 30.479 28.287-3.2684 75.081-1.0898 93.576-1.0898 18.508 0 22.852-17.404 4.3574-28.299-18.495-10.869-14.15-35.9-14.15-35.9v-260.08c0-6.5368 2.1793-15.227 14.15-23.93 10.475-7.6035 8.4487-24.402-7.5312-24.104zm856.17 0c-2.2829 0.0426-4.8504 0.43485-7.707 1.252-22.853 6.5368-70.723 4.3582-92.486 1.0898-21.763-3.2684-19.584 22.853-5.4473 27.211 14.163 4.3578 15.252 34.836 15.252 34.836v226.31c0 13.061 4.3316 39.183-11.984 52.23-16.316 13.074-16.316 33.747 11.984 30.479 28.274-3.2684 75.081-1.0898 93.576-1.0898 18.495 0 22.852-17.404 4.3574-28.299-18.521-10.869-14.162-35.9-14.162-35.9v-260.08c0-6.5368 2.178-15.227 14.162-23.93 10.463-7.6035 8.4352-24.402-7.5449-24.104zm-1119.4 1.666c-55.744 0-118.05 38.417-118.05 105.68 0.013 89.686 86.898 147.34 132.81 198.58 45.9 51.244 22.956 99.272-8.1973 99.272-31.153 0-39.349-22.425-75.418-84.861-36.082-62.475-45.914 8.002-45.914 8.002v68.857c0 30.427 54.11 48.04 122.97 48.027 68.869 0 111.49-62.437 111.49-134.51 0-72.034-90.167-137.7-134.45-192.13-44.253-54.46-14.747-75.264 9.8438-75.264 24.591-1e-5 40.985 38.417 49.182 60.842 8.1969 22.425 21.309 36.834 36.068 36.834 14.76 0 19.676-22.426 19.676-22.426v-54.459c0-40.012-52.463-62.438-100.01-62.438zm440.6 441.36a535.43 535.43 0 0 0 240.12 56.562 535.43 535.43 0 0 0 240.12 -56.562zm-173.24 44.475-56.25 80.762 16.535 11.531 22.01-31.621 17.445 12.139c12.49 8.6897 10.181 13.45 2.5156 24.475-5.7975 8.3395-8.0282 12.943-9.5586 17.56l18.676 13.022 1.4922-2.1523c-2.6588-3.852-0.62127-6.7563 7.6016-18.598 10.493-15.071 8.6238-20.065 4.0195-27.613 9.87 2.8664 19.702-1.6469 25.889-10.531 4.8507-6.9648 11.958-25.59-9.5332-40.557zm815.38 8.793-66.756 44.227 9.5976 14.514 24.838-16.434 44.732 67.561 17.146-11.375-44.76-67.533 24.824-16.445zm-808.56 16.641 21.037 14.668c9.8959 6.8869 7.4303 14.513 4.4473 18.793-5.564 7.9764-11.944 8.0546-20.725 1.9199l-19.805-13.774zm71.709 27.533-44.758 87.676 66.547 33.969 7.9258-15.498-48.598-24.799 11.594-22.723 42.736 21.814 7.9102-15.512-42.734-21.803 9.416-18.443 46.521 23.762 7.9121-15.539zm663.84 3.6582-17.248 8.4297 30.09 61.582-0.25976 0.129-65.199-44.434-19.455 9.4921 43.215 88.467 17.225-8.4414-30.803-63.072 0.25781-0.1309 66.898 45.447 18.496-9.0156zm-569.59 40.619c-17.701-0.3612-25.666 11.317-28.523 19.392-7.2371 20.414 6.0438 28.896 19.805 37.715l9.1191 5.8496c9.001 5.8105 15.291 10.207 12.723 17.457-3.4759 9.7922-14.462 8.3792-23.645 5.1368-16.926-5.9921-16.029-16.744-14.33-21.932l-18.586-6.6152c-4.0855 11.504-5.1883 33.086 28.676 45.096 8.132 2.8533 37.443 10.481 47.326-17.43 5.9012-16.666-3.89-25.967-15.459-33.541l-20.648-13.578c-3.5667-2.2827-8.9625-5.9277-6.3945-13.178 2.983-8.3785 12.723-8.0034 20.09-5.3965 16.926 6.005 14.994 16.369 14.047 20.701l18.625 6.5879c3.9039-11.426 2.8653-32.736-25.564-42.787-6.585-2.3321-12.303-3.3774-17.26-3.4785zm457.42 8.6152-22.594 7.2754-3.1914 104.47 20.623-6.666 0.29687-21.4 34.578-11.154 12.244 17.381 21.244-6.8614zm-398.72 12.035-3.6973 17.029 29.066 6.33-17.225 79.166 20.09 4.371 17.236-79.18 29.066 6.3281 3.6953-17.016zm312.9 11.678c-2.1157 0.042-4.3772 0.2565-6.7969 0.6699l-49.064 8.377 16.6 97.066 19.857-3.3985-6.4844-37.975 20.945-3.5937c14.993-2.5551 16.667 2.4395 18.949 15.682 1.699 9.9867 3.3724 14.85 5.5254 19.221l22.424-3.8515-0.42773-2.5547c-4.6043-0.882-5.1867-4.4107-7.625-18.6-3.1128-18.106-7.9517-20.335-16.512-22.488 9.0399-4.8896 12.867-14.994 11.051-25.668-1.3047-7.593-7.9896-23.292-28.441-22.887zm81.268 1.0977 23.578 33.307-23.891 7.7031 0.0527-40.945zm-292.09 6.4062l-44.838 94.408 21.557 2.1777 8.8574-19.506 36.16 3.6445 4.2148 20.83 22.244 2.2558-24.604-101.44zm139.19 3.1523-20.973 0.6094 1.8809 64.822c0.33722 11.932-5.2151 18.95-19.326 19.352-9.5976 0.2854-17.729-5.5116-18.105-19.221l-1.8535-63.863-20.973 0.5839 1.8809 65.25c0.54473 9.8441 2.8538 17.73 8.3789 23.606 9.0529 9.4809 22.554 11.296 31.594 11.024 24.798-0.7004 40.103-12.255 39.363-38.143zm67.832 7.1075c8.6758 0.085 11.521 6.1294 12.281 10.635 1.6472 9.5717-2.865 14.111-13.396 15.914l-23.787 4.0723-4.4356-25.94 25.252-4.332c1.4883-0.2529 2.8465-0.3618 4.0859-0.3496zm-197.8 12.996 0.27344 0.025 8.2226 39.973-24.967-2.541z" stroke-width="12.97"/>
<path d="m100.68 139.26a42.618 42.618 0 0 1 -21.352 -5.705h-4.266a44.939 44.939 0 0 0 25.618 7.971c9.514 0 18.34-2.945 25.617-7.971h-4.266a42.617 42.617 0 0 1 -21.351 5.705zm0-84.42a41.309 41.309 0 0 0 -16.395 3.375h32.789a41.304 41.304 0 0 0 -16.394 -3.375z"/>
<path d="m100.68 53.498a42.62 42.62 0 0 1 19.541 4.717h4.588a44.934 44.934 0 0 0 -24.129 -6.984 44.937 44.937 0 0 0 -24.129 6.984h4.587a42.612 42.612 0 0 1 19.542 -4.717z"/>
</g>
</g>
</g>
</g>
</svg>
