<?xml version="1.0" encoding="UTF-8" standalone="no"?> <!-- Created with Inkscape (http://www.inkscape.org/) --> <svg xmlns:dc="http://purl.org/dc/elements/1.1/" xmlns:cc="http://creativecommons.org/ns#" xmlns:rdf="http://www.w3.org/1999/02/22-rdf-syntax-ns#" xmlns:svg="http://www.w3.org/2000/svg" xmlns="http://www.w3.org/2000/svg" xmlns:sodipodi="http://sodipodi.sourceforge.net/DTD/sodipodi-0.dtd" xmlns:inkscape="http://www.inkscape.org/namespaces/inkscape" width="1024" height="755" viewBox="0 0 270.93335 199.76041" id="svg8" inkscape:version="0.92.3 (2405546, 2018-03-11)" sodipodi:docname="sizzlin.svg"><defs id="defs2"></defs><metadata id="metadata5"></metadata><g inkscape:label="Layer 1" inkscape:groupmode="layer" id="layer1" transform="translate(35.022349,-39.961148)"><g id="g837" transform="matrix(3.4315836,0,0,3.4315836,-300.07193,-188.2129)" style="clip-rule:evenodd;fill-rule:evenodd"><g id="g915" transform="matrix(0.4492329,0,0,0.44891924,63.686226,51.549773)"><path inkscape:connector-curvature="0" id="path817" d="m 122.34641,33.285662 c -16.731,0 -32.590936,6.350077 -44.693936,17.880076 h -43.14903 a 0.66999998,0.66999998 0 0 0 -0.4849,0.207062 l -0.71305,0.745876 c -3.232,3.379 -3.29806,6.98002 -3.05006,8.82702 0.323,2.402 1.53002,4.502009 3.15502,5.49701 0.146,0.148999 0.47704,0.877091 0.57104,1.604091 l 0.019,0.154957 c 0.003,0.03 0.009,0.06 0.017,0.089 l 0.041,0.157969 c 0.22,0.853 5.40504,20.935004 7.23904,27.270004 1.833,6.332043 5.77901,8.049093 8.63201,7.598093 h 2.43294 c -2.347,7.51199 0.14903,13.08401 1.69203,15.57001 -2.132,2.047 -2.30795,4.0679 -2.30795,4.6659 v 11.24205 c 0,3.857 1.72003,5.39994 2.78503,5.98794 3.576,2.822 8.60897,4.31412 14.56497,4.31412 2.588,0 4.95597,-0.50808 7.05397,-1.49808 12.129,12.307 28.936036,19.35903 46.198036,19.35903 16.904,0 32.88094,-6.46307 45.02494,-18.19707 h 14.48004 c 1.973,0 3.69303,-0.69888 4.97702,-2.02289 2.416,-2.49199 2.3119,-6.29506 2.3069,-6.45506 v -28.33394 l -0.002,-0.32407 c 0,-0.209 -0.002,-0.52705 0.0101,-0.81605 a 4.8239999,4.8239999 0 0 0 3.05895,-1.54295 c 0.729,-0.783 1.24604,-1.83195 1.53904,-3.12295 h 1.87093 c 2.898,0 4.62106,-1.28104 5.55906,-2.357043 2.14501,-2.46404 1.99793,-5.890061 1.89293,-6.941062 V 67.678753 c 0,-2.618 0.43598,-3.195951 0.98999,-3.926951 0.74,-0.98 1.861,-2.460059 1.861,-5.637059 -0.003,-5.713 -4.15692,-7.787041 -6.94992,-7.787041 h -32.82004 c -11.982,-10.99 -27.52509,-17.04204 -43.80109,-17.04204 z m -0.002,1.342064 c 16.025,0 31.32805,5.987987 43.08805,16.862987 a 0.66399999,0.66399999 0 0 0 0.45493,0.177998 h 33.07799 c 2.25399,0 5.60514,1.71602 5.60514,6.44302 0.002,2.728 -0.88113,3.893044 -1.58813,4.830044 -0.65001,0.857 -1.26392,1.667978 -1.26392,4.736978 v 25.19592 c 0,0.023 0.002,0.04702 0.004,0.07003 0.092,0.871 0.24801,3.876074 -1.56599,5.960084 -0.752,0.86503 -2.15198,1.895963 -4.54497,1.895963 h -2.42195 a 0.67299999,0.67299999 0 0 0 -0.662,0.55899 c -0.217,1.28701 -0.65809,2.29509 -1.30909,2.99209 a 3.5399999,3.5399999 0 0 1 -2.65401,1.14599 l -0.053,0.002 h -0.002 a 0.67299999,0.67299999 0 0 0 -0.64603,0.55493 c -0.072,0.408 -0.074,1.00208 -0.072,1.57608 l 0.002,0.32001 v 28.35397 c 0.004,0.162 0.094,3.41401 -1.92802,5.50002 -1.025,1.057 -2.41199,1.61493 -4.01399,1.61493 H 167.1034 a 0.66699999,0.66699999 0 0 0 -0.46894,0.1911 c -11.916,11.609 -27.645,18.00401 -44.289,18.00401 -17.062,0 -33.673046,-7.03107 -45.575046,-19.29307 a 0.67299999,0.67299999 0 0 0 -0.78894,-0.1289 c -2.013,1.037 -4.33102,1.56193 -6.88802,1.56193 -5.675,0 -10.43899,-1.40402 -13.77799,-4.05903 a 0.56599999,0.56599999 0 0 0 -0.1021,-0.0679 c -0.795,-0.424 -2.12799,-1.61511 -2.12799,-4.83411 v -11.2419 c 0,-0.35 0.11012,-2.19106 2.27512,-4.04306 a 0.67299999,0.67299999 0 0 0 0.11987,-0.88698 c -1.414,-2.09 -4.39691,-7.81208 -1.55891,-15.75208 a 0.67099999,0.67099999 0 0 0 -0.63203,-0.89601 h -3.40998 a 0.71899999,0.71899999 0 0 0 -0.11294,0.0101 c -2.313,0.395 -5.58208,-1.10709 -7.18408,-6.639132 -1.829,-6.316999 -7.00895,-26.381001 -7.22895,-27.231001 l -0.0291,-0.114901 -0.014,-0.118063 c -0.086,-0.662999 -0.48492,-2.150968 -1.17792,-2.566967 -1.3,-0.780001 -2.27705,-2.521934 -2.54904,-4.546934 -0.21601,-1.607 -0.15406,-4.747028 2.68894,-7.720028 l 0.51607,-0.538964 h 43.12705 a 0.66999999,0.66999999 0 0 0 0.46487,-0.187034 C 90.256394,40.911837 105.87042,34.627794 122.34442,34.627794 Z m 0.002,1.747001 c -16.945,0 -32.293866,6.827981 -43.451866,17.88098 h -43.3591 c -3.69101,3.859 -2.18098,8.557011 -0.50298,9.564011 1.678,1.007 2.014,3.859035 2.014,3.859035 0,0 5.36995,20.805964 7.21495,27.182964 1.846,6.376033 5.37006,5.370103 5.37006,5.370103 h 7.38301 c -6.544,12.08 1.50997,19.29487 1.50997,19.29487 -3.691,1.846 -3.69098,4.02709 -3.69098,4.02709 v 11.24206 c 0,3.02099 1.34207,3.35696 1.34207,3.35696 2.014,1.678 5.87292,3.85693 12.91992,3.85693 3.664,0 6.10095,-1.17797 7.59895,-2.31096 11.294,12.393 27.565056,20.17207 45.653056,20.17207 17.105,0 32.58806,-6.95712 43.77006,-18.19512 h 15.73597 c 4.363,0 4.19501,-5.37096 4.19501,-5.37096 v -28.35502 c 0,-1.845 -0.16798,-4.19501 2.51802,-4.19501 2.684,0 2.34997,-4.699053 2.34997,-4.699053 h 4.69692 c 5.201,0 4.36306,-6.039901 4.36306,-6.039901 l -0.002,-25.337023 c 0,-6.712 2.85189,-4.86601 2.85189,-9.56401 0,-4.698 -3.8589,-4.697976 -3.8589,-4.697976 h -34.02906 c -11.08,-10.559 -26.078,-17.04204 -42.592,-17.04204 z m -3.95888,5.373977 -2.65611,3.49295 3.84307,4.006012 -2.02108,0.271063 -2.76891,-2.98802 -0.63203,0.852946 0.342,2.546036 -1.57202,0.210977 -1.01001,-7.522905 1.57201,-0.210074 0.41097,3.059097 2.46005,-3.445061 z m 6.3081,0.02982 c 0.0363,3.78e-4 0.0728,0.0014 0.10978,0.0032 0.83399,0.04 1.83205,0.628025 1.77305,1.842025 -0.051,1.066 -1.02791,1.580044 -1.34191,1.745044 l 1.01197,1.381971 c 0.205,-0.287 0.36901,-0.649013 0.45101,-1.227013 l 1.30894,0.06295 c -0.145,1.02 -0.43792,1.598132 -0.97493,2.239132 l 1.29087,1.723961 -1.783,-0.08599 -0.48595,-0.669074 c -0.465,0.423001 -1.06395,0.796056 -2.20495,0.741056 -1.448,-0.07 -2.31702,-1.138045 -2.26202,-2.268045 0.035,-0.729 0.26893,-1.437032 1.56193,-2.137031 l 0.16399,-0.08689 c -0.298,-0.374001 -0.63999,-0.962042 -0.60899,-1.617042 0.0475,-1.002657 0.86457,-1.659934 1.99021,-1.648215 z m 8.18384,0.811232 2.242,0.576912 -0.15993,6.13702 0.019,0.005 2.80294,-5.456953 2.22106,0.572094 -1.89096,7.349877 -1.43302,-0.367893 1.57999,-6.143044 -0.02,-0.005 -2.95308,5.789005 -1.50591,-0.387018 0.24005,-6.486993 -0.0211,-0.006 -1.58,6.143043 -1.43393,-0.369097 z m -8.24182,0.307506 c -0.30181,0.01004 -0.56148,0.207601 -0.58023,0.583538 -0.012,0.254 0.16203,0.568882 0.50403,0.976882 0.412,-0.234 0.722,-0.514953 0.74,-0.905954 0.021,-0.422999 -0.24396,-0.637014 -0.60296,-0.654014 -0.0204,-10e-4 -0.0407,-0.0011 -0.0608,-4.52e-4 z m -17.02924,0.770422 4.67012,6.554005 -1.65605,0.477071 -0.89993,-1.36902 -2.69105,0.77494 -0.0761,1.650021 -1.605,0.462012 0.49996,-8.041991 z m -5.94698,1.900002 0.55508,1.222043 -3.667025,1.664026 0.65898,1.455006 3.370065,-1.530001 0.55402,1.222044 -3.369005,1.53 0.812885,1.789921 3.83102,-1.739021 0.55508,1.223097 -5.246115,2.380988 -3.13696,-6.912109 z m 5.53707,0.0011 -0.02,0.006 -0.10406,3.153969 1.85905,-0.535952 z m 16.83197,0.449965 c -0.645,0.424 -0.92996,0.622 -0.95896,1.224 -0.014,0.296 0.18294,1.014995 1.06994,1.056995 0.486,0.024 0.93305,-0.250896 1.19705,-0.470896 z m 19.82555,0.06987 c 0.66613,0.009 1.24524,0.201342 1.58949,0.355092 0.916,0.41 3.1499,1.886098 1.69489,5.137098 -1.455,3.251 -4.0449,2.56791 -4.9609,2.15691 -0.916,-0.41 -3.15205,-1.885948 -1.69505,-5.136948 0.90938,-2.0325 2.26137,-2.527113 3.37157,-2.512152 z m 0.18237,1.401396 c -0.70105,0.01382 -1.5098,0.425685 -2.10586,1.758748 -0.87,1.938999 0.0149,2.914051 0.79693,3.264051 0.78099,0.349 2.09797,0.359004 2.96497,-1.579996 0.869,-1.939 -0.0159,-2.915052 -0.79692,-3.264052 -0.24406,-0.109063 -0.54046,-0.185033 -0.85912,-0.178751 z m -48.563965,0.946763 0.70311,1.142983 -1.95407,1.202014 3.27203,5.320969 -1.35004,0.830959 -3.27294,-5.320969 -1.954061,1.201111 -0.70401,-1.143133 z m 55.095075,0.760031 3.21496,2.093963 c 1.691,1.103 1.18706,2.55407 0.83006,3.10307 -0.455,0.7 -1.20297,1.070877 -1.96897,0.873877 0.371,0.571 0.52689,0.950032 -0.24411,2.137032 -0.607,0.93 -0.75603,1.160091 -0.54303,1.451091 l -0.10888,0.167909 -1.47112,-0.957907 c 0.107,-0.358 0.26913,-0.721097 0.69513,-1.376097 0.566,-0.868 0.73191,-1.238974 -0.25209,-1.879974 l -1.37293,-0.894101 -1.62111,2.489112 -1.30095,-0.848126 z m 0.58505,1.946986 -1.10714,1.700018 1.55801,1.015884 c 0.692,0.45 1.184,0.43007 1.594,-0.19893 0.218,-0.336 0.39002,-0.93099 -0.38898,-1.43799 z m -28.80814,1.83189 a 44.934,44.934 0 0 1 24.12914,6.984092 h -4.58805 a 42.62,42.62 0 0 0 -19.54109,-4.717101 42.612,42.612 0 0 0 -19.54199,4.717101 h -4.586985 a 44.937,44.937 0 0 1 24.128975,-6.984092 z m -33.636966,0.349671 c 0.8496,-0.0093 1.50092,0.442278 1.85301,0.867402 l -1.18394,0.957004 c -0.246,-0.236 -0.84905,-0.781097 -1.92605,0.0899 -0.468,0.378999 -0.88794,1.003132 -0.45494,1.538132 0.372,0.46 0.82996,0.252985 1.12296,0.110985 l 1.72396,-0.810027 c 0.965,-0.453999 1.97009,-0.723978 2.828091,0.337022 1.436,1.775 -0.246101,3.393901 -0.764101,3.811901 -2.153,1.742 -3.52695,0.800067 -4.11895,0.06807 l 1.18304,-0.955046 c 0.274,0.322 0.94392,0.813077 2.02092,-0.05692 0.583,-0.472 1.12002,-1.137061 0.61502,-1.762061 -0.372,-0.46 -0.91596,-0.224932 -1.65996,0.132068 l -0.75205,0.363977 c -1.133,0.549 -2.22701,1.079891 -3.27701,-0.219109 -0.532,-0.657 -1.11591,-2.101919 0.80009,-3.650919 0.7345,-0.593938 1.4086,-0.816018 1.98991,-0.822376 z m 68.832106,0.648444 4.18898,3.68691 -0.88608,1.008054 -3.02401,-2.661087 -1.05398,1.198099 2.77704,2.444989 -0.88698,1.007903 -2.77704,-2.444989 -1.29899,1.476993 3.15803,2.778999 -0.88698,1.008054 -4.32406,-3.806028 z m -35.19514,2.61094 a 41.303999,41.303999 0 0 1 16.39405,3.375037 h -32.789 a 41.308999,41.308999 0 0 1 16.39495,-3.375037 z m 51.19238,2.86318 c 0.0575,6.1e-4 0.11633,0.0035 0.17664,0.0087 1.93,0.168 4.02704,0.503029 7.04704,0.08403 l 11.34595,18.03808 V 65.748784 c 0,0 0.14806,-2.853001 -1.94894,-3.608001 -2.67,-0.961 -1.93003,-2.853001 -0.084,-2.601001 1.846,0.252 3.77509,0.251879 5.62109,0.08388 1.846,-0.168 2.43387,1.007004 0.92387,2.181004 -1.512,1.175 -1.76191,1.510064 -1.76191,3.943065 v 28.860993 c 0,0 -0.84002,1.174063 -2.09802,-0.83894 -1.26,-2.013 -14.93408,-23.658992 -14.93408,-23.658992 V 88.65166 c 0,0 -0.168,2.34912 2.014,2.93712 2.18,0.587 2.6001,3.103998 0.1661,3.020998 -2.432,-0.084 -8.30507,-0.08399 -10.90607,0.167006 -2.6,0.252 -2.43394,-0.671126 -3.01994,-2.097126 -0.588,-1.427 -3.94307,-9.228946 -3.94307,-9.228946 0,0 -0.33591,-1.678935 -2.18191,-1.678935 v 7.299881 c 0,0 -0.31596,2.09909 1.25804,2.853089 1.929,0.923001 1.51097,2.93591 -0.084,2.76891 0,0 -5.87308,-0.251879 -7.88508,-0.08388 -2.014,0.167 -1.92996,-1.762063 -0.75596,-2.349063 1.174,-0.587 1.25803,-1.594001 1.25803,-3.608001 V 70.027666 c 0,0 0.25203,-1.341907 -1.08998,-2.181908 -1.342,-0.839 -1.258,-2.685001 0.42,-2.601001 1.678,0.084 6.37492,0.168029 9.31192,0.08403 2.936,-0.084 9.06104,0.755007 9.06104,7.383007 0,0 0.33591,5.201975 -4.44709,7.718974 0,0 3.85909,8.054011 4.44709,9.564011 0.588,1.51 1.17397,2.348913 2.34997,2.348913 1.174,0 2.09803,-0.755038 2.09803,-3.439039 V 65.41372 c 0,0 0.586,-1.84594 -2.014,-2.85294 -2.52069,-0.975531 -2.12646,-3.13179 -0.3447,-3.112858 z M 40.905504,59.84774 h 10.06698 c 0,0 1.90196,0.671959 0.89496,1.901959 -1.007,1.23 -1.78891,0.671096 -1.34191,3.020095 0.447,2.349 3.9149,16.778958 3.9149,16.778958 l 4.25102,-14.542085 c 0,0 -0.78299,-3.467872 -2.57299,-4.250872 -1.789,-0.783 -1.789,-2.908055 0,-2.908055 h 9.39595 c 0,0 3.02007,0.223999 1.79007,2.013999 0,0 -2.12498,0.894056 -2.12498,1.901056 l 4.58594,17.673918 3.80407,-15.212966 c 0,0 0.89597,-2.573055 -1.23003,-3.915055 -2.126,-1.342 -0.78293,-2.460952 0.33507,-2.460952 h 5.25696 c 0,0 2.23696,0.335999 0.89496,2.013999 -1.342,1.678 -1.90095,1.900938 -2.46095,3.578936 l -0.0401,0.127099 a 3.1399999,3.1399999 0 0 1 0.93502,-0.127099 h 15.10198 c 0,10e-7 0.894061,0.336079 0.894061,2.238078 v 2.907905 c 0,0 -0.55907,2.572064 -2.349071,0.335065 -1.79,-2.237001 -3.13191,-3.467952 -4.36291,-3.467952 -1.23,0 -1.78911,0.783984 -1.78811,2.124984 0,0.537 -0.0189,4.25093 -0.0399,8.51093 1.106,-0.089 2.643,-0.495883 3.06,-2.022884 0.671,-2.460999 3.13198,-2.461071 3.13198,0.223929 v 6.711975 c 0,0 -1.87198,3.059079 -3.13198,0.224079 -1.119,-2.517 -1.1521,-2.626115 -3.0731,-2.592117 l -0.0599,11.429076 c 0,0 2.68393,1.78904 4.58593,-1.90196 1.902,-3.691 3.916111,-4.138032 3.916111,-0.671032 v 3.690977 c 0,0 -10e-5,2.349969 -2.461101,2.349969 h -14.76601 c 0,0 -1.45396,-1.006027 0.11204,-2.237027 1.566,-1.231 1.45395,-1.230919 1.45395,-3.803919 V 70.026762 c 0,0 0.55904,-1.565984 -0.89496,-2.124984 -0.321,-0.123 -0.5829,-0.314091 -0.7769,-0.533091 -1.772,6.389 -6.94102,25.814095 -6.94102,25.814095 0,0 -0.672,2.013998 -2.014,2.013998 -1.343,0 -1.67806,0.670987 -2.34906,-2.796016 -0.671,-3.467999 -5.14599,-18.570083 -5.14599,-18.570083 l -5.48104,19.800108 c 0,0 -0.448,1.901958 -2.014,1.901958 -1.565,0 -1.34199,-0.671997 -2.12499,-3.020998 -0.783,-2.348999 -7.27096,-26.400042 -7.27096,-26.400042 0,0 -0.559,-2.795976 -2.014,-3.690976 -1.454,-0.895 -1.006,-2.572991 0.448,-2.572991 z m 62.642986,5.03304 c 3.244,0 6.82401,1.565911 6.82401,4.362911 v 3.803016 c 0,0 -0.33506,1.565992 -1.34206,1.565992 -1.007,0 -1.90196,-1.006992 -2.46096,-2.572991 -0.559,-1.566001 -1.67806,-4.251024 -3.35606,-4.251024 -1.678,0 -3.690875,1.453969 -0.67088,5.256969 3.02,3.803 9.17187,8.3901 9.17187,13.4241 0,5.034 -2.90793,9.395954 -7.60693,9.395954 -4.697995,0.002 -8.390005,-1.227958 -8.390005,-3.353958 v -4.811068 c 0,0 0.67104,-4.920993 3.13304,-0.558993 2.460995,4.362 3.019975,5.929054 5.145975,5.929054 2.126,0 3.69105,-3.356053 0.56005,-6.936053 -3.133,-3.580001 -9.062085,-7.606903 -9.062085,-13.870903 0,-4.698 4.25103,-7.383006 8.054035,-7.383006 z m 11.18602,0.224982 h 14.98994 c 0,0 1.56599,-1.6e-5 1.56599,2.124984 v 4.697976 c 0,0 -1.45489,1.454079 -2.57389,-0.78292 -1.209,-2.420001 -1.2301,-3.691009 -4.0271,-3.35501 v 21.25391 c 0,0 -0.037,2.25707 1.11904,2.79707 1.678,0.783 1.455,2.796016 0,2.796016 h -8.61303 c 0,0 -2.349,-1.007102 0,-2.461102 0,0 1.28695,7.3e-5 1.28695,-3.244927 V 68.013667 c 0,0 -2.06898,-0.446969 -2.96498,1.678031 -0.895,2.125 -1.56491,2.349967 -2.34891,2.349967 -0.784,0 -0.78308,-0.895999 -0.78308,-2.013999 v -3.355912 c 0,0 0.22407,-1.565992 2.34907,-1.565992 z m 19.01703,0.334913 h 15.10198 c 0,10e-7 0.89496,0.336079 0.89496,2.238078 v 2.907905 c 0,0 -0.56096,2.572064 -2.34996,0.335065 -1.789,-2.237001 -3.13306,-3.467952 -4.36306,-3.467952 -1.23,0 -1.78902,0.783984 -1.78902,2.124984 0,0.537 -0.018,4.25093 -0.039,8.51093 1.106,-0.089 2.6431,-0.495883 3.0591,-2.022884 0.672,-2.460999 3.13288,-2.461071 3.13288,0.223929 v 6.711975 c 0,0 -1.87288,3.059079 -3.13288,0.224079 -1.117,-2.517 -1.15005,-2.626115 -3.07205,-2.592117 l -0.059,11.429076 c 0,0 2.68409,1.78904 4.58609,-1.90196 1.902,-3.691 3.914,-4.138032 3.914,-0.671032 v 3.690977 c 0,0 -1.1e-4,2.349969 -2.46111,2.349969 h -14.76604 c 0,0 -1.45291,-1.007027 0.11309,-2.237027 1.564,-1.231 1.4529,-1.230919 1.4529,-3.803919 V 70.026762 c 0,0 0.55803,-1.565984 -0.89496,-2.124984 -1.455,-0.559 -1.78892,-2.461102 0.67208,-2.461103 z m 27.24215,2.316687 c -0.56274,-0.0045 -0.95414,0.0884 -0.95414,0.0884 V 78.83677 c 2.769,0 4.94886,-0.923065 4.94886,-5.957064 0,-4.462719 -2.5566,-5.110773 -3.99472,-5.12234 z m -53.01935,33.241408 c 1.05829,-0.005 2.02717,0.38824 1.30608,2.42105 -0.923,2.602 -9.22895,23.9939 -9.22895,23.9939 0,0 3.94298,2.26613 6.29198,-2.85188 0,0 0.613,-2.36909 2.181,-1.84609 1.259,0.42 1.92997,0.75403 1.34297,2.09803 -0.588,1.342 -1.34297,4.10902 -1.34297,4.10902 0,0 -0.084,1.42799 -2.014,1.25999 -1.93,-0.168 -8.809005,-0.33603 -11.158005,-0.084 -2.349,0.252 -2.014,-0.84003 -2.014,-1.67803 0,-0.84001 0.31909,-1.85895 1.25909,-4.02695 1.092,-2.518 8.643895,-21.47904 8.643895,-21.47904 0,0 -3.858905,-0.58594 -5.369905,2.18206 -1.51,2.77 -3.021,2.51796 -3.021,0.33596 v -3.69097 c 0,0 0.25201,-0.84006 2.18101,-0.58806 1.93,0.252 8.809875,0.084 10.067875,-0.084 0.27519,-0.0367 0.57861,-0.0695 0.87493,-0.0709 z m 17.51399,0 c 1.05833,-0.005 2.02744,0.38824 1.30713,2.42105 -0.924,2.602 -9.22894,23.9939 -9.22894,23.9939 0,0 3.94398,2.26613 6.29197,-2.85188 0,0 0.61506,-2.36909 2.18206,-1.84609 1.26,0.42 1.92987,0.75403 1.34387,2.09803 -0.588,1.342 -1.34387,4.10902 -1.34387,4.10902 0,0 -0.084,1.42799 -2.014,1.25999 -1.93,-0.168 -8.80901,-0.33603 -11.15801,-0.084 -2.349,0.252 -2.014,-0.84003 -2.014,-1.67803 0,-0.84001 0.31794,-1.85895 1.25894,-4.02695 1.091,-2.518 8.64104,-21.47904 8.64104,-21.47904 0,0 -3.85901,-0.58594 -5.36901,2.18206 -1.51,2.77 -3.021,2.51796 -3.021,0.33596 v -3.69097 c 0,0 0.25201,-0.84006 2.18101,-0.58806 1.93,0.252 8.81003,0.084 10.06803,-0.084 0.27519,-0.0367 0.57845,-0.0695 0.87478,-0.0709 z m 35.2364,0.0554 c 0.0558,6.2e-4 0.11308,0.004 0.17168,0.009 1.877,0.162 3.91602,0.48797 6.85202,0.08 l 11.03107,17.53702 v -11.5 c 0,0 0.14291,-2.77301 -1.89609,-3.50801 -2.596,-0.936 -1.87492,-2.77302 -0.0819,-2.52902 1.795,0.246 3.66993,0.24607 5.46493,0.0821 1.795,-0.162 2.36513,0.97892 0.89813,2.12092 -1.469,1.143 -1.71312,1.46904 -1.71312,3.83404 v 28.057 c 0,0 -0.816,1.14095 -2.039,-0.81606 -1.225,-1.95699 -14.51995,-23.00001 -14.51995,-23.00001 v 18.0251 c 0,0 -0.16197,2.283 1.95903,2.854 2.121,0.572 2.52704,3.02002 0.16204,2.93802 0,0 -4.42413,-0.23808 -5.94713,-0.0211 -1.521,0.21701 -1.47994,-1.53595 -0.088,-2.18295 1.035,-0.48001 2.039,-0.73402 2.039,-3.34402 v -22.83601 c 0,0 0.57008,-1.79498 -1.95692,-2.77298 -2.44997,-0.9484 -2.06682,-3.04553 -0.33582,-3.02657 z m -22.32792,0.0518 c 1.2693,0.002 1.67225,1.38256 0.83668,2.14381 -0.922,0.84 -1.76206,0.67297 -1.76206,2.76997 v 19.04293 c 0,0 -0.084,1.84805 1.67803,1.84805 1.762,0 2.85401,-1.51203 3.77501,-3.52502 0.924,-2.01401 1.174,-1.59392 2.014,-1.34192 0.838,0.252 1.34194,0.41988 1.00594,1.67788 -0.334,1.258 -0.92191,4.0271 -0.92191,4.0271 0,0 -0.16803,2.18198 -2.51803,1.92998 -2.35,-0.252 -8.38898,-0.16794 -11.49398,0.16806 -3.104,0.336 -2.01406,-1.84613 -0.92206,-2.35013 1.09,-0.502 1.25803,-2.014 1.25803,-3.18801 v -18.03894 c 0,0 0.084,-2.01392 -1.25803,-2.51592 -1.342,-0.504 -1.42591,-2.77003 0.5861,-2.51803 2.01599,0.252 5.70493,0.25197 7.30093,-0.084 0.14943,-0.0315 0.29005,-0.046 0.42135,-0.0458 z m -48.237036,0.0352 c 1.2321,-0.023 1.38831,1.27234 0.58068,1.85859 -0.923,0.671 -1.09103,1.34089 -1.09103,1.84489 v 20.0531 c 0,0 -0.33497,1.93 1.09103,2.768 1.426,0.84001 1.09103,2.18192 -0.33597,2.18192 -1.426,0 -5.03394,-0.16797 -7.21494,0.084 -2.182,0.252 -2.18212,-1.34197 -0.92312,-2.34998 1.259,-1.006 0.92312,-3.02009 0.92312,-4.02709 v -17.44891 c 0,0 -0.0841,-2.34993 -1.17506,-2.68593 -1.091,-0.336 -1.25801,-2.35003 0.41999,-2.09803 1.678,0.252 5.36907,0.41997 7.13107,-0.084 0.22025,-0.063 0.41822,-0.0932 0.59423,-0.0965 z m 66.012906,0 c 1.23211,-0.023 1.38848,1.27234 0.58173,1.85859 -0.924,0.671 -1.09193,1.34089 -1.09193,1.84489 v 20.0531 c 0,0 -0.33607,1.93 1.09193,2.768 1.426,0.84001 1.09003,2.18192 -0.33597,2.18192 -1.426,0 -5.03495,-0.16797 -7.21494,0.084 -2.182,0.252 -2.18203,-1.34197 -0.92403,-2.34998 1.258,-1.006 0.92403,-3.02009 0.92403,-4.02709 v -17.44891 c 0,0 -0.084,-2.34993 -1.17597,-2.68593 -1.09,-0.336 -1.258,-2.35003 0.42,-2.09803 1.678,0.252 5.36892,0.41997 7.13092,-0.084 0.22025,-0.063 0.41821,-0.0932 0.59423,-0.0965 z m -86.312216,0.12861 c 3.666,0 7.71099,1.72893 7.71099,4.81393 v 4.19907 c 0,0 -0.3789,1.72893 -1.5169,1.72893 -1.138,0 -2.14911,-1.11099 -2.78111,-2.83999 -0.632,-1.729 -1.89602,-4.69105 -3.79202,-4.69105 -1.896,0 -4.17097,1.60401 -0.75897,5.80301 3.414,4.197 10.36605,9.26005 10.36605,14.81405 0,5.55701 -3.28601,10.37104 -8.59601,10.37104 -5.309,9.9e-4 -9.48104,-1.35703 -9.48104,-3.70303 v -5.30908 c 0,0 0.75809,-5.43397 3.54009,-0.61697 2.781,4.81401 3.4129,6.54302 5.8149,6.54302 2.402,0 4.17103,-3.70307 0.63203,-7.65408 -3.54,-3.951 -10.23901,-8.396 -10.24001,-15.31099 0,-5.186 4.804,-8.14786 9.102,-8.14786 z m 26.868081,34.02987 h 4.265925 a 42.618,42.618 0 0 0 21.35194,5.70513 42.617,42.617 0 0 0 21.35104,-5.70513 h 4.26608 c -7.277,5.02601 -16.10312,7.97106 -25.61712,7.97106 a 44.939,44.939 0 0 1 -25.617865,-7.97106 z m 7.102895,0 h 37.02798 a 41.283,41.283 0 0 1 -18.51391,4.36111 41.283,41.283 0 0 1 -18.51407,-4.36111 z m -13.356926,3.4291 3.149001,2.19094 c 1.657,1.154 1.10903,2.59002 0.73503,3.12702 -0.477,0.685 -1.23508,1.03298 -1.996081,0.81198 0.355001,0.582 0.499091,0.96705 -0.30991,2.12905 -0.634,0.913 -0.7911,1.13692 -0.5861,1.43393 l -0.1149,0.1661 -1.4401,-1.00399 c 0.118,-0.356 0.28999,-0.71111 0.73699,-1.35411 0.591,-0.85 0.76904,-1.2169 -0.19396,-1.8869 l -1.34508,-0.93607 -1.69685,2.43806 -1.27505,-0.88909 z m 62.867966,0.67796 0.74196,1.11904 -1.91401,1.26797 3.45109,5.20698 -1.32204,0.87704 -3.44897,-5.20909 -1.91506,1.26707 -0.74001,-1.11903 z m -62.341956,1.28303 -1.16,1.66598 1.52699,1.06197 c 0.677,0.473 1.16892,0.46697 1.597921,-0.14803 0.23,-0.33 0.4201,-0.91798 -0.3429,-1.44898 z m 5.528941,2.12303 4.970985,2.537 -0.61004,1.19795 -3.586915,-1.83194 -0.726,1.42188 3.29493,1.68105 -0.60989,1.19599 -3.29508,-1.68195 -0.8939,1.75197 3.74699,1.91205 -0.61109,1.19493 -5.13093,-2.61891 z m 51.184085,0.2819 3.33197,6.8201 -1.42609,0.69498 -5.15788,-3.50409 -0.02,0.0101 2.37496,4.86302 -1.32806,0.651 -3.33196,-6.821 1.50003,-0.73202 5.02701,3.42593 0.02,-0.01 -2.31999,-4.74796 z m -44.04263,3.13184 c 0.0412,-9.1e-4 0.0831,-8.7e-4 0.12574,0 0.38215,0.008 0.82305,0.0884 1.33077,0.2682 2.192,0.775 2.27208,2.41799 1.97108,3.29899 l -1.43603,-0.50794 c 0.073,-0.334 0.22195,-1.13312 -1.08305,-1.59612 -0.568,-0.20099 -1.31898,-0.22991 -1.54898,0.41609 -0.198,0.559 0.21804,0.84004 0.49304,1.01603 l 1.59204,1.04691 c 0.892,0.584 1.64693,1.30109 1.19193,2.58609 -0.762,2.152 -3.02197,1.56403 -3.64897,1.34402 -2.611,-0.926 -2.52597,-2.59013 -2.21097,-3.47713 l 1.43302,0.51005 c -0.131,0.4 -0.20011,1.22898 1.10489,1.69098 0.708,0.25 1.55505,0.3591 1.82305,-0.3959 0.198,-0.559 -0.28695,-0.89814 -0.98095,-1.34613 l -0.70311,-0.45087 c -1.061,-0.68 -2.08499,-1.33405 -1.52699,-2.90806 0.21343,-0.6032 0.79643,-1.46713 2.07349,-1.49521 z m 35.39361,0.66425 4.87296,6.40296 -1.63797,0.52903 -0.94405,-1.3401 -2.66606,0.86002 -0.0229,1.65002 -1.59009,0.51397 0.24607,-8.05495 z m -30.74202,0.92795 6.03191,1.313 -0.28492,1.31194 -2.24109,-0.48792 -1.32896,6.10495 -1.54898,-0.33703 1.32806,-6.10389 -2.24109,-0.48805 z m 24.12507,0.90038 c 1.57689,-0.0312 2.09231,1.17918 2.1929,1.76461 0.14,0.823 -0.15504,1.60207 -0.85204,1.97907 0.66,0.166 1.03309,0.3379 1.27309,1.7339 0.188,1.094 0.23291,1.36607 0.58791,1.43407 l 0.033,0.19698 -1.72893,0.29696 c -0.166,-0.337 -0.29502,-0.71197 -0.42602,-1.48196 -0.176,-1.021 -0.30503,-1.40594 -1.46104,-1.20895 l -1.61493,0.27694 0.49996,2.92793 -1.53105,0.26204 -1.27987,-7.48391 3.78298,-0.64603 c 0.18657,-0.0319 0.36093,-0.0484 0.52406,-0.0516 z m 6.26592,0.0846 -0.02,0.005 -0.004,3.15698 1.84203,-0.59393 z m -22.52097,0.49394 1.81898,0.18312 1.89699,7.82092 -1.71508,-0.17393 -0.32497,-1.60605 -2.78804,-0.281 -0.68292,1.50395 -1.66207,-0.16791 z m 10.73199,0.24305 0.14396,4.93607 c 0.057,1.99599 -1.123,2.88688 -3.035,2.94088 -0.697,0.021 -1.73796,-0.11893 -2.43595,-0.84993 -0.426,-0.453 -0.60404,-1.06104 -0.64604,-1.82004 l -0.14502,-5.03094 1.61704,-0.045 0.14291,4.92401 c 0.029,1.057 0.65613,1.50397 1.39613,1.48196 1.088,-0.031 1.51594,-0.57204 1.48994,-1.49205 l -0.14502,-4.99795 z m 5.23001,0.54801 c -0.0956,-9.4e-4 -0.20029,0.007 -0.31504,0.0269 l -1.94698,0.33401 0.34199,2 1.83404,-0.31398 c 0.812,-0.139 1.1599,-0.48902 1.0329,-1.22702 -0.0586,-0.34737 -0.27799,-0.81338 -0.94691,-0.81996 z m -15.25107,1.00203 -1.26993,2.88802 1.925,0.19592 -0.63398,-3.08199 z" style="fill:#501616;stroke-width:1"></path><g style="clip-rule:evenodd;fill-rule:evenodd" transform="translate(21.662455,1.7447243)" id="g887"><path inkscape:connector-curvature="0" id="path873" transform="matrix(0.0771024,0,0,0.0771024,65.781701,53.102519)" d="m 401.32812,-169.88477 -26.35546,3.54102 -31.90625,44.67969 -5.33008,-39.67383 -20.38867,2.72461 13.09961,97.570311 20.38867,-2.736328 -4.43555,-33.021484 8.19727,-11.062499 35.91211,38.753905 26.21289,-3.515625 -49.84375,-51.95703 z m 81.81446,0.38672 c -14.59918,-0.152 -25.19684,8.37274 -25.8125,21.37696 -0.40206,8.49519 4.03345,16.12196 7.89844,20.97265 l -2.12696,1.12696 c -16.7699,9.07883 -19.80387,18.26183 -20.25781,27.716792 -0.71334,14.655835 10.55767,28.508133 29.33789,29.416016 14.7985,0.713337 22.56672,-4.125117 28.59766,-9.611328 l 6.30273,8.677734 23.125,1.115235 -16.74219,-22.361328 c 6.96477,-8.31362 10.76392,-15.809901 12.64454,-29.039061 l -16.97657,-0.81641 c -1.06352,7.49653 -3.19081,12.19174 -5.84961,15.91406 l -13.125,-17.92382 c 4.07251,-2.14001 16.74284,-8.80705 17.4043,-22.63282 0.76522,-15.74529 -12.17931,-23.37183 -22.99609,-23.89062 -0.47907,-0.0231 -0.95289,-0.0361 -1.42383,-0.041 z m 106.14258,10.52149 -24.55274,95.339841 18.59961,4.78711 20.49219,-79.673831 0.27148,0.0781 -3.11132,84.134763 19.53124,5.019531 38.30079,-75.082034 0.25976,0.0645 -20.49219,79.673824 18.58399,4.771485 24.52734,-95.328129 -28.80664,-7.41797 -36.35351,70.775396 -0.2461,-0.06445 2.07422,-79.595706 z m -106.89454,3.98828 c 0.26097,-0.009 0.524,-0.007 0.78907,0.006 4.65614,0.22048 8.09268,2.99621 7.82031,8.48242 -0.23346,5.07118 -4.25411,8.71508 -9.59766,11.75 -4.43566,-5.29166 -6.69274,-9.37755 -6.53711,-12.67188 0.24319,-4.87582 3.61095,-7.43621 7.52539,-7.5664 z m -220.86523,9.99219 -22.80078,6.57617 -6.48438,104.302732 20.81641,-5.992187 0.98633,-21.400391 34.90039,-10.050781 11.67383,17.755859 21.47851,-6.1875 z m -77.13086,24.64257 -65.91211,29.908208 40.68555,89.64648388 68.04101,-30.88085988 -7.19921,-15.861328 -49.6875,22.554688 -10.54297,-23.216797 43.69336,-19.84375 -7.1836,-15.847656 -43.70898,19.84375 -8.54688,-18.871094 47.56055,-21.582035 z m 71.81445,0.0137 22.50196,34.033199 -24.11133,6.951172 1.34961,-40.906251 z m 218.30664,5.83593 16.96485,23.474613 c -3.42402,2.853348 -9.22209,6.420649 -15.52539,6.109375 -11.50418,-0.54473 -14.05853,-9.869934 -13.87696,-13.708984 0.37613,-7.807794 4.07201,-10.375824 12.4375,-15.875004 z m 257.13282,0.90625 c -14.3991,-0.19404 -31.93414,6.22099 -43.72852,32.582035 -18.89695,42.164705 10.10407,61.307396 21.98438,66.625 11.8803,5.3305733 45.47079,14.19009595 64.34179,-27.974609 18.87101,-42.164706 -10.10211,-61.309346 -21.98242,-66.626956 -4.46484,-1.9941 -11.97577,-4.48904 -20.61523,-4.60547 z m 2.36523,18.175785 c 4.13294,-0.08147 7.97715,0.903844 11.14258,2.318359 10.12939,4.526448 21.60666,17.185611 10.33594,42.333985 -11.24479,25.148374 -28.32569,25.018635 -38.45508,20.492187 -10.14236,-4.539417 -21.61963,-17.18561 -10.33594,-42.333984 7.73079,-17.289507 18.22003,-22.631307 27.3125,-22.810547 z M 104.15039,-83.142578 35.929688,-41.199219 45.060547,-26.375 70.404297,-41.951172 112.85352,27.060547 130.36328,16.283203 87.925781,-52.728516 113.26953,-68.318359 Z m 714.57031,9.857422 -53.73437,82.4863279 16.87305,10.9980471 21.02539,-32.28125 17.80664,11.59570288 c 12.76224,8.31361922 10.61041,13.12505712 3.26953,24.38281212 -5.52512,8.495196 -7.62786,13.202528 -9.01563,17.845704 l 19.08008,12.425781 1.41211,-2.179688 c -2.76256,-3.774201 -0.82968,-6.756478 7.04297,-18.818359 9.99969,-15.395111 7.9778,-20.311061 3.16601,-27.716797 9.93484,2.5550437 19.63587,-2.2571021 25.53711,-11.3359375 4.63021,-7.1204005 11.16625,-25.9384905 -10.76562,-40.2441405 z m 7.58594,25.251953 21.47852,13.994141 c 10.10344,6.57567 7.87233,14.292549 5.04492,18.65039 -5.31761,8.1579822 -11.69875,8.4164724 -20.67383,2.580078 L 811.94922,-25.984375 Z M 16.410156,-19.738281 C 8.8707328,-19.65583 0.12785474,-16.775495 -9.3984375,-9.0722656 -34.248507,11.0179 -26.675305,29.758161 -19.775391,38.279297 c 13.6182534,16.847724 27.80721,9.962198 42.501953,2.841797 l 9.753907,-4.722656 c 9.649505,-4.630207 16.704544,-7.67703 21.529297,-1.710938 6.549731,8.106103 -0.41519,16.731787 -7.976563,22.853516 -13.968437,11.283695 -22.657222,4.914545 -26.210937,0.738281 L 4.4785156,70.666016 C 12.156616,80.159883 29.976487,92.376533 57.900391,69.783203 64.618729,64.361841 86.435129,43.365082 67.810547,20.34375 56.682489,6.5828296 43.646682,10.084383 31.130859,15.972656 L 8.7714844,26.476562 C 4.9713433,28.318269 -0.96821625,31.003201 -5.7929688,25.037109 -11.408877,18.098285 -5.962428,10.005385 0.10742188,5.0898438 14.075859,-6.2068214 21.897328,0.86296364 25.087891,3.9238281 L 40.443359,-8.4882812 C 35.876786,-14.002053 27.429314,-19.858787 16.410156,-19.738281 Z m 892.734374,8.408203 -65.0293,73.902344 56.08204,49.363284 11.5039,-13.074222 -40.95898,-36.042969 16.84765,-19.15625 36.01758,31.710938 11.50391,-13.072266 -36.01758,-31.710937 13.66992,-15.539063 39.22071,34.513672 11.49218,-13.074219 z m 207.48247,71 c -23.109,-0.245535 -28.2221,27.720636 4.4707,40.373048 33.7213,13.06055 26.1211,37.00195 26.1211,37.00195 V 441.7168 c 0,34.81085 -11.9845,44.60351 -27.211,44.60351 -15.2524,0 -22.8523,-10.8805 -30.4785,-30.46484 -7.6262,-19.58435 -57.6777,-124.04297 -57.6777,-124.04297 62.0343,-32.6449 57.6777,-100.11523 57.6777,-100.11523 0,-85.96361 -79.4403,-96.84532 -117.51953,-95.75586 -38.0922,1.08946 -99.01018,0.002 -120.77344,-1.08789 -21.76327,-1.08946 -22.85269,22.85274 -5.44727,33.73437 17.40543,10.8946 14.13672,28.29883 14.13672,28.29883 v 241.5625 c 0,26.12111 -1.0899,39.18167 -16.3164,46.79492 -15.22651,7.61325 -16.31642,32.63275 9.80468,30.4668 26.09517,-2.17892 102.26758,1.08789 102.26758,1.08789 20.68678,2.16595 26.10657,-23.94102 1.08789,-35.91211 -20.41441,-9.7792 -16.31445,-37.00391 -16.31445,-37.00391 v -94.67773 c 23.94218,0 28.29883,21.77539 28.29883,21.77539 0,0 43.51439,101.18941 51.14059,119.69726 7.6003,18.49489 5.4466,30.4676 39.168,27.19922 33.7344,-3.25541 109.9068,-3.25547 141.4492,-2.16601 31.5684,1.07649 26.1198,-31.56839 -2.1543,-39.18164 -28.3,-7.62622 -26.1211,-38.09375 -26.1211,-38.09375 V 197.96289 c 0,0 177.3495,280.74343 193.6914,306.85156 16.316,26.10814 27.211,10.88282 27.211,10.88282 V 141.37695 c 0,-31.55543 3.2413,-35.90115 22.8515,-51.140622 19.5844,-15.226504 11.9598,-30.46603 -11.9824,-28.287109 -23.9422,2.17892 -48.9621,2.18049 -72.9043,-1.087891 -23.9422,-3.268381 -33.5394,21.270431 1.0899,33.734375 27.1976,9.792177 25.2773,46.792967 25.2773,46.792967 v 153.4336 L 1210.3164,60.873047 c -39.1687,5.434331 -66.3668,1.089077 -91.3984,-1.089844 -0.7823,-0.06809 -1.5456,-0.105361 -2.291,-0.113281 z m -1720.2227,5.185547 c -18.85804,0 -24.66859,21.763154 -5.81055,33.371093 18.87101,11.607938 26.12109,47.871098 26.12109,47.871098 0,0 84.14741,311.93636 94.30274,342.40234 10.15532,30.46598 7.26286,39.18164 27.56054,39.18164 20.31066,0 26.1211,-24.66992 26.1211,-24.66992 l 71.08789,-256.80078 c 0,0 58.03947,195.87046 66.74219,240.84961 8.70271,44.96617 13.0484,36.26367 30.46679,36.26367 17.40543,0 26.1211,-26.12109 26.1211,-26.1211 0,0 67.03906,-251.9389 90.02148,-334.80273 2.51614,2.84038 5.91483,5.31878 10.07813,6.91406 18.85803,7.2501 11.60742,27.56055 11.60742,27.56055 v 252.44336 c 0,33.3712 1.45323,33.37016 -18.85742,49.33594 -20.31065,15.96578 -1.45313,29.01367 -1.45313,29.01367 H 42.025391 c 31.918591,0 31.919921,-30.47852 31.919921,-30.47852 v -47.87109 c 0,-44.96618 -26.122522,-39.16828 -50.791015,8.70312 -24.6684928,47.87141 -59.478516,24.66797 -59.478516,24.66797 l 0.777344,-148.23242 c 24.914918,-0.44097 25.344255,0.97424 39.8574219,33.61914 16.3419041,36.76929 40.6210941,-2.90625 40.6210941,-2.90625 v -87.05273 c 0,-34.82382 -31.918382,-34.82484 -40.6210941,-2.90625 -5.4083919,19.80483 -25.3429399,25.08397 -39.6874999,26.23828 0.272365,-55.2512 0.517578,-103.42 0.517578,-110.38477 -0.01297,-17.39245 7.238596,-27.56054 23.191406,-27.56054 15.9657807,0 33.370059,15.96515 56.585938,44.97851 23.215879,29.01337 30.466797,-4.3457 30.466797,-4.3457 v -37.71484 c 0,-24.6685 -11.595704,-29.02735 -11.595704,-29.02735 H -132.08008 a 40.725061,40.725061 0 0 0 -12.12695,1.64844 l 0.51953,-1.64844 c 7.26307,-21.76326 14.51254,-24.6547 31.91797,-46.417968 17.405423,-21.763265 -11.60742,-26.121093 -11.60742,-26.121093 h -68.18164 c -14.5002,0 -31.91943,14.512544 -4.34571,31.917969 27.57372,17.405422 15.95313,50.777342 15.95313,50.777342 l -49.33789,197.3086 -59.47852,-229.22852 c 0,-13.06055 27.56055,-24.654298 27.56055,-24.654298 15.95281,-23.215878 -23.2168,-26.121093 -23.2168,-26.121093 h -121.86328 c -23.20291,0 -23.20291,27.559518 0,37.714841 23.21588,10.15533 33.37109,55.13477 33.37109,55.13477 l -55.13476,188.60742 c 0,0 -44.97791,-187.15512 -50.77539,-217.62109 -5.79749,-30.465981 4.34374,-23.21516 17.40429,-39.167972 13.06056,-15.952811 -11.60742,-24.667969 -11.60742,-24.667969 z m 812.46484,65.277341 c -49.32401,0 -104.45898,34.82195 -104.45898,95.75391 0,81.24261 76.89893,133.47254 117.5332,179.9043 40.60833,46.43175 20.31005,89.95898 -7.26367,89.95898 -27.57372,0 -34.8236,-20.32432 -66.74219,-76.89844 -31.93156,-56.57411 -40.63477,7.25 -40.63477,7.25 V 488.5 c 0,27.57372 47.88446,43.52594 108.81641,43.5 60.94493,0 98.66016,-56.57349 98.66016,-121.86328 0,-65.2898 -79.78834,-124.78341 -118.95703,-174.10742 -39.16869,-49.32402 -13.0621,-68.18164 8.70117,-68.18164 21.76326,0 36.27724,34.82411 43.52734,55.13476 7.2501,20.31065 18.85742,33.3711 31.91797,33.3711 13.06055,0 17.40625,-20.31055 17.40625,-20.31055 v -49.32422 c 0,-36.27643 -46.43194,-56.58594 -88.50586,-56.58594 z m 145.08008,2.91797 c -27.56075,0 -30.4668,20.31055 -30.4668,20.31055 v 43.52539 c 0,14.5002 -0.012,26.12109 10.15625,26.12109 10.1683,0 18.85691,-2.91776 30.46485,-30.47851 11.6209,-27.56075 38.45507,-21.76368 38.45507,-21.76368 v 271.30274 c 0,42.08689 -16.6914,42.08594 -16.6914,42.08594 -30.46598,18.85803 0,31.91797 0,31.91797 h 111.70898 c 18.87101,0 21.76327,-26.1064 0,-36.26172 C 482.58312,472.80687 483.0625,443.5332 483.0625,443.5332 V 167.87305 c 36.27643,-4.35784 36.55002,12.12684 52.23047,43.51367 14.51317,29.01336 33.38281,10.15625 33.38281,10.15625 v -60.93164 c 0,-27.56075 -20.31055,-27.56055 -20.31055,-27.56055 z m 246.64648,4.34375 c -31.91859,0 -27.5878,24.66982 -8.71679,31.91992 18.84506,7.2501 11.60742,27.56055 11.60742,27.56055 v 252.44336 c 0,33.3712 1.44096,33.37016 -18.84375,49.33594 -20.31065,15.95281 -1.4668,29.01367 -1.4668,29.01367 H 774.6875 c 31.91859,0 31.91992,-30.47852 31.91992,-30.47852 v -47.87109 c 0,-44.96618 -26.09518,-39.16828 -50.76367,8.70312 -24.66849,47.87141 -59.48047,24.66797 -59.48047,24.66797 l 0.76563,-148.23242 c 24.92788,-0.44097 25.35652,0.97424 39.84375,33.61914 16.3419,36.76929 40.63281,-2.90625 40.63281,-2.90625 v -87.05273 c 0,-34.82382 -31.91713,-34.82484 -40.63281,-2.90625 -5.39543,19.80483 -25.33123,25.08397 -39.67578,26.23828 0.27236,-55.2512 0.50585,-103.42 0.50585,-110.38477 0,-17.39245 7.25032,-27.56054 23.20313,-27.56054 15.95281,0 33.38498,15.96515 56.58789,44.97851 23.20291,29.01337 30.47852,-4.3457 30.47852,-4.3457 v -37.71484 c 0,-24.6685 -11.60743,-29.02735 -11.60743,-29.02735 z m 353.32422,30.04688 c 18.6521,0.15001 51.81058,8.55513 51.81058,66.43554 0,65.2898 -28.2723,77.26172 -64.18558,77.26172 V 168.58789 c 0,0 5.07635,-1.20519 12.375,-1.14648 z M 266.27148,598.57422 c -3.84322,0.0191 -7.77853,0.44328 -11.34765,0.91992 -16.31597,2.17892 -105.54648,4.35823 -130.57813,1.08984 -25.018673,-3.26838 -28.287106,7.62696 -28.287106,7.62696 v 47.87109 c 0,28.30003 19.597296,31.56883 39.181636,-4.35742 19.59732,-35.90031 69.64649,-28.30078 69.64649,-28.30078 0,0 -97.94639,245.92026 -112.109376,278.57812 -12.191579,28.11845 -16.330078,41.33392 -16.330078,52.22852 0,10.86866 -4.344884,25.03205 26.121094,21.76367 30.46598,-3.26838 119.68515,-1.08908 144.7168,1.08984 25.03164,2.17892 26.12109,-16.34179 26.12109,-16.34179 0,0 9.79175,-35.88755 17.41797,-53.29297 7.61325,-17.43137 -1.08904,-21.76364 -17.41797,-27.21094 -20.33659,-6.78319 -28.28711,23.94141 -28.28711,23.94141 -30.46598,66.37925 -81.60547,36.99023 -81.60547,36.99023 0,0 107.72617,-277.44798 119.69727,-311.19531 9.35241,-26.3651 -3.21367,-31.46869 -16.93946,-31.40039 z m 227.15235,0 c -3.84336,0.0191 -7.77854,0.44328 -11.34766,0.91992 -16.31596,2.17892 -105.54648,4.35823 -130.57812,1.08984 -25.01868,-3.26838 -28.28711,7.62696 -28.28711,7.62696 v 47.87109 c 0,28.30003 19.59729,31.56883 39.18164,-4.35742 19.58434,-35.90031 69.63476,-28.30078 69.63476,-28.30078 0,0 -97.92225,245.92026 -112.07226,278.57812 -12.20455,28.11845 -16.32813,41.33392 -16.32813,52.22852 0,10.86866 -4.34488,25.03205 26.1211,21.76367 30.46597,-3.26838 119.68319,-1.08908 144.71484,1.08984 25.03165,2.17892 26.12109,-16.34179 26.12109,-16.34179 0,0 9.80542,-35.88755 17.43164,-53.29297 7.60029,-17.43137 -1.08973,-21.76364 -17.43164,-27.21094 -20.32362,-6.78319 -28.29882,23.94141 -28.29882,23.94141 -30.45301,66.37925 -81.60547,36.99023 -81.60547,36.99023 0,0 107.7132,-277.44798 119.69726,-311.19531 9.34229,-26.3651 -3.22685,-31.46869 -16.95312,-31.40039 z m 457.00781,0.71875 c -22.4507,-0.24588 -27.422,26.9533 4.35352,39.25391 32.77459,12.68442 25.38281,35.96484 25.38281,35.96484 v 296.17773 c 0,33.85105 -13.02161,37.14565 -26.44531,43.37105 -18.05392,8.3915 -18.58639,31.127 1.14062,28.3125 19.75295,-2.8144 77.13082,0.2735 77.13082,0.2735 30.6735,1.0635 25.4093,-30.6868 -2.0996,-38.1055 -27.5088,-7.40572 -25.4082,-37.01561 -25.4082,-37.01561 V 733.74414 c 0,0 172.4324,272.92286 188.3203,298.30466 15.8621,25.3819 26.4454,10.584 26.4454,10.584 V 678.74023 c 0,-30.67349 3.1661,-34.90212 22.2187,-49.72656 19.0266,-14.81147 11.6323,-29.60891 -11.6484,-27.50781 -23.2808,2.12704 -47.5982,2.12611 -70.8789,-1.06445 -23.2548,-3.16463 -32.6071,20.66108 1.0625,32.80078 26.4453,9.53277 24.5918,45.49804 24.5918,45.49804 V 827.89258 L 1041.5273,600.44141 c -38.0792,5.29166 -64.52485,1.06399 -88.8691,-1.03711 -0.75994,-0.0665 -1.50234,-0.1034 -2.22656,-0.11133 z m -289.58789,0.67187 c -1.70302,-0.003 -3.52667,0.18521 -5.46484,0.59375 -20.69975,4.35784 -68.54436,4.35823 -94.69141,1.08985 -26.09517,-3.26838 -25.00699,26.11949 -7.60156,32.65625 17.40542,6.51082 16.3164,32.63281 16.3164,32.63281 v 233.96094 c 0,15.2265 -2.17936,34.83683 -16.3164,41.34765 -14.16299,6.53677 -28.29917,34.83831 11.95898,30.48047 40.27112,-4.35784 118.59527,-5.44807 149.07422,-2.17968 30.47895,3.26838 32.6582,-25.03126 32.6582,-25.03126 0,0 7.62513,-35.9145 11.95704,-52.23046 4.35784,-16.31597 -2.17822,-18.49334 -13.04688,-21.76172 -10.8946,-3.26838 -14.13703,-8.71681 -26.12109,17.40429 -11.94516,26.10814 -26.10822,45.71875 -48.96094,45.71875 -22.85273,0 -21.76367,-23.96875 -21.76367,-23.96875 V 663.69531 c 0,-27.19759 10.89539,-25.03118 22.85351,-35.92578 10.83705,-9.87323 5.61095,-27.77783 -10.85156,-27.80469 z m -625.623047,0.45704 c -2.282856,0.0426 -4.85044,0.43485 -7.707031,1.25195 -22.8527257,6.53676 -70.725016,4.35822 -92.488281,1.08984 -21.763266,-3.26838 -19.597279,22.8531 -5.447266,27.21094 14.150013,4.35784 15.240234,34.83594 15.240234,34.83594 v 226.30859 c 0,13.06055 4.356278,39.18289 -11.972656,52.23047 -16.328934,13.07352 -16.32737,33.7469 11.972656,30.47851 28.287057,-3.26838 75.081288,-1.08984 93.576172,-1.08984 18.507855,0 22.852307,-17.40422 4.357422,-28.29883 C 24.257069,933.57079 28.601562,908.53906 28.601562,908.53906 V 648.45508 c 0,-6.53676 2.179298,-15.22698 14.150391,-23.92969 10.474706,-7.60352 8.448742,-24.40177 -7.53125,-24.10351 z m 856.171877,0 c -2.28288,0.0426 -4.85044,0.43485 -7.70703,1.25195 -22.85273,6.53676 -70.72307,4.35822 -92.48633,1.08984 -21.76327,-3.26838 -19.58431,22.8531 -5.44727,27.21094 14.16299,4.35784 15.25196,34.83594 15.25196,34.83594 v 226.30859 c 0,13.06055 4.33159,39.18289 -11.98438,52.23047 -16.31596,13.07352 -16.31565,33.7469 11.98438,30.47851 28.27408,-3.26838 75.08128,-1.08984 93.57617,-1.08984 18.49488,0 22.8523,-17.40422 4.35742,-28.29883 -18.52082,-10.86866 -14.16211,-35.90039 -14.16211,-35.90039 V 648.45508 c 0,-6.53676 2.17805,-15.22698 14.16211,-23.92969 10.46336,-7.60352 8.43525,-24.40177 -7.54492,-24.10351 z m -1119.44922,1.66601 c -55.74405,0 -118.05078,38.41653 -118.05078,105.67773 0.013,89.68593 86.89758,147.33654 132.81054,198.58008 45.9,51.24354 22.95611,99.2715 -8.19726,99.2715 -31.15338,0 -39.34905,-22.42489 -75.41797,-84.86134 -36.08189,-62.47536 -45.91406,8.00195 -45.91406,8.00195 v 68.85742 c 0,30.42707 54.11031,48.04027 122.96679,48.02737 68.86946,0 111.48829,-62.4368 111.48829,-134.50979 0,-72.03407 -90.16654,-137.70066 -134.44532,-192.13476 -44.25283,-54.46005 -14.74692,-75.26367 9.84375,-75.26367 24.59068,-10e-6 40.98475,38.41707 49.18164,60.84179 8.1969,22.42473 21.30877,36.83399 36.06836,36.83399 14.7596,0 19.67578,-22.42578 19.67578,-22.42578 v -54.45899 c 0,-40.01172 -52.4626,-62.4375 -100.00976,-62.4375 z m 440.5957,441.36131 a 535.4308,535.4308 0 0 0 240.12305,56.5625 535.4308,535.4308 0 0 0 240.12109,-56.5625 z m -173.236326,44.4746 -56.25,80.7617 16.53515662,11.5313 22.00976538,-31.6211 17.445313,12.1387 c 12.489883,8.6897 10.180756,13.4503 2.515625,24.4746 -5.797485,8.3395 -8.028162,12.9433 -9.558594,17.5605 l 18.675781,13.0215 1.492188,-2.1523 c -2.658802,-3.852 -0.621269,-6.7563 7.601562,-18.5977 10.49254,-15.0709 8.623798,-20.0649 4.019531,-27.6133 9.869992,2.8664 19.702095,-1.6469 25.888672,-10.5312 4.850692,-6.9648 11.957696,-25.5895 -9.533203,-40.5567 z m 815.382816,8.793 -66.75586,44.2266 9.59765,14.5136 24.83789,-16.4336 44.73243,67.5606 17.14648,-11.375 -44.75976,-67.5332 24.82421,-16.4453 z m -808.56055,16.6406 21.037109,14.668 c 9.895931,6.8869 7.430312,14.5129 4.447266,18.793 -5.564029,7.9764 -11.944079,8.0546 -20.724609,1.9199 l -19.804688,-13.7735 z m 71.70898,27.5332 -44.757808,87.6758 66.546878,33.9688 7.92578,-15.4981 -48.597658,-24.7988 11.593748,-22.7227 42.73633,21.8145 7.91016,-15.5117 -42.73438,-21.8028 9.41602,-18.4433 46.52148,23.7617 7.91211,-15.5391 z m 663.84375,3.6582 -17.24804,8.4297 30.08984,61.582 -0.25976,0.129 -65.19922,-44.4336 -19.45508,9.4921 43.21484,88.4668 17.22461,-8.4414 -30.80273,-63.0722 0.25781,-0.1309 66.89844,45.4473 18.49609,-9.0156 z m -569.58984,40.6192 c -17.70136,-0.3612 -25.66604,11.3168 -28.52344,19.3925 -7.23713,20.4145 6.04377,28.8955 19.80469,37.7149 l 9.11914,5.8496 c 9.00102,5.8105 15.29067,10.2069 12.72266,17.457 -3.4759,9.7922 -14.46194,8.3792 -23.64453,5.1368 -16.92555,-5.9921 -16.02912,-16.7438 -14.33008,-21.9317 l -18.58594,-6.6152 c -4.08548,11.5042 -5.18827,33.0857 28.67578,45.0957 8.13204,2.8533 37.44321,10.4812 47.32617,-17.4297 5.90125,-16.6662 -3.88995,-25.9667 -15.45898,-33.541 l -20.64844,-13.5781 c -3.56668,-2.2827 -8.96254,-5.9277 -6.39453,-13.1778 2.98305,-8.3785 12.72302,-8.0034 20.08984,-5.3965 16.92555,6.005 14.99367,16.3693 14.04688,20.7012 l 18.625,6.5879 c 3.9039,-11.4264 2.86527,-32.7355 -25.56445,-42.7871 -6.585,-2.3321 -12.30339,-3.3774 -17.25977,-3.4785 z m 457.41602,8.6152 -22.59375,7.2754 -3.19141,104.4707 20.62305,-6.666 0.29687,-21.4004 34.57813,-11.1543 12.24414,17.3809 21.24414,-6.8614 z m -398.7168,12.0352 -3.69727,17.0293 29.06641,6.33 -17.22461,79.1661 20.08984,4.371 17.23633,-79.1796 29.06641,6.3281 3.69531,-17.0156 z m 312.89648,11.6777 c -2.1157,0.042 -4.3772,0.2565 -6.79687,0.6699 l -49.06445,8.377 16.59961,97.0664 19.85742,-3.3985 -6.48438,-37.9746 20.94531,-3.5937 c 14.99305,-2.5551 16.66654,2.4395 18.94922,15.6816 1.69904,9.9867 3.37241,14.8499 5.52539,19.2207 l 22.42383,-3.8515 -0.42773,-2.5547 c -4.60427,-0.882 -5.18669,-4.4107 -7.625,-18.5996 -3.11275,-18.1058 -7.95168,-20.3353 -16.51172,-22.4883 9.03992,-4.8896 12.86655,-14.9939 11.05078,-25.668 -1.30468,-7.593 -7.98956,-23.292 -28.44141,-22.8867 z m 81.26758,1.0977 23.57813,33.3066 -23.89063,7.7031 0.0527,-40.9453 z M 372.85938,1225 l -44.8379,94.4082 21.55664,2.1777 8.85743,-19.5058 36.16015,3.6445 4.21485,20.8301 22.24414,2.2558 -24.60352,-101.4375 z m 139.1914,3.1523 -20.97266,0.6094 1.88086,64.8223 c 0.33722,11.9322 -5.21506,18.9495 -19.32617,19.3515 -9.59762,0.2854 -17.72934,-5.5116 -18.10547,-19.2207 l -1.85351,-63.8632 -20.97266,0.5839 1.88086,65.25 c 0.54473,9.8441 2.85379,17.7302 8.37891,23.6055 9.05289,9.4809 22.55382,11.2958 31.59375,11.0235 24.79819,-0.7004 40.10256,-12.255 39.36328,-38.1426 z m 67.83203,7.1075 c 8.67579,0.085 11.5209,6.1294 12.28125,10.6347 1.64716,9.5717 -2.86503,14.1113 -13.39648,15.9141 l -23.78711,4.0723 -4.43555,-25.9395 25.25196,-4.332 c 1.48828,-0.2529 2.84653,-0.3618 4.08593,-0.3496 z m -197.80273,12.9961 0.27344,0.025 8.22265,39.9727 -24.96679,-2.541 z" style="fill:#ffffff;stroke-width:12.96976471"></path><path style="fill:#ffffff" inkscape:connector-curvature="0" d="m 100.684,139.26 a 42.618,42.618 0 0 1 -21.352,-5.705 h -4.266 a 44.939,44.939 0 0 0 25.618,7.971 c 9.514,0 18.34,-2.945 25.617,-7.971 h -4.266 a 42.617,42.617 0 0 1 -21.351,5.705 z m 0,-84.42 a 41.309,41.309 0 0 0 -16.395,3.375 h 32.789 A 41.304,41.304 0 0 0 100.684,54.84 Z" id="path875"></path><path style="fill:#ffffff" inkscape:connector-curvature="0" d="m 100.684,53.498 a 42.62,42.62 0 0 1 19.541,4.717 h 4.588 a 44.934,44.934 0 0 0 -24.129,-6.984 44.937,44.937 0 0 0 -24.129,6.984 h 4.587 a 42.612,42.612 0 0 1 19.542,-4.717 z" id="path877"></path></g></g></g></g></svg> 