<?xml version="1.0" encoding="UTF-8"?>
<svg width="370.39" height="272.74" version="1.1" viewBox="0 0 97.997414 72.162318" xmlns="http://www.w3.org/2000/svg" xmlns:cc="http://creativecommons.org/ns#" xmlns:dc="http://purl.org/dc/elements/1.1/" xmlns:rdf="http://www.w3.org/1999/02/22-rdf-syntax-ns#">
<metadata>
<rdf:RDF>
<cc:Work rdf:about="">
<dc:format>image/svg+xml</dc:format>
<dc:type rdf:resource="http://purl.org/dc/dcmitype/StillImage"/>
</cc:Work>
</rdf:RDF>
</metadata>
<path d="m51.395 0.050928c-9.3192-3e-6 -18.154 3.5289-24.895 9.9362h-24.034c-0.10202-2.22e-4 -0.19967 0.04123-0.27027 0.11472l-0.39687 0.41444c-1.8002 1.8778-1.8372 3.8793-1.6991 4.9056 0.17991 1.3348 0.85242 2.5016 1.7575 3.0546 0.0813 0.0828 0.2654 0.4874 0.3178 0.89141l0.0103 0.0863c2e-3 0.0167 6e-3 0.03299 0.0103 0.04909l0.0227 0.08785c0.12253 0.47402 3.0107 11.634 4.0323 15.154 1.021 3.5188 3.2188 4.4731 4.8079 4.2224h1.3549c-1.3074 4.1745 0.0831 7.2706 0.94257 8.6521-1.1876 1.1376-1.2852 2.2608-1.2852 2.5931v6.2476c0 2.1434 0.95761 3.0007 1.5508 3.3274 1.9919 1.5682 4.7955 2.3972 8.1131 2.3972 1.4415 0 2.7603-0.28235 3.9289-0.8325 6.756 6.8391 16.118 10.758 25.733 10.758 9.4156 0 18.314-3.5918 25.079-10.112h8.0656c1.099 0 2.0572-0.38871 2.7724-1.1245 1.3458-1.3848 1.2877-3.4979 1.2847-3.5868v-15.746l-1e-3 -0.17983c0-0.11611-1e-3 -0.29312 6e-3 -0.45372 0.65393-0.0682 1.2601-0.37319 1.7037-0.8573 0.40605-0.43511 0.6941-1.0179 0.85732-1.7353h1.0418c1.6142 0 2.5739-0.71205 3.0964-1.31 1.1948-1.3694 1.1132-3.2731 1.0547-3.8571v-13.985c0-1.4549 0.24281-1.776 0.55139-2.1823 0.41219-0.54459 1.0366-1.3671 1.0366-3.1326-1e-3 -3.1748-2.3154-4.3279-3.8711-4.3279h-18.282c-6.674-6.1073-15.331-9.4701-24.397-9.4701z" fill="#810800" opacity=".6" stroke="#333" stroke-width=".10247" style="paint-order:stroke fill markers"/>
<g transform="matrix(.35156 0 0 .35099 13.682 -13.003)">
<g transform="matrix(3.4316,0,0,3.4316,-300.07,-188.21)" clip-rule="evenodd" fill-rule="evenodd">
<path d="m118.65 66.492c-7.5161 0-14.641 2.8507-20.078 8.0267h-19.384a0.30099 0.30078 0 0 0 -0.21783 0.09295l-0.32032 0.33484c-1.4519 1.5169-1.4816 3.1335-1.3702 3.9626 0.1451 1.0783 0.68734 2.021 1.4173 2.4677 0.06559 0.06689 0.2143 0.39374 0.25653 0.72011l0.0085 0.06956c0.0013 0.01347 4e-3 0.02693 0.0076 0.03995l0.01842 0.07092c0.09883 0.38293 2.4281 9.3981 3.252 12.242 0.82344 2.8426 2.5961 3.6134 3.8778 3.4109h1.093c-1.0544 3.3723 0.06695 5.8737 0.76012 6.9897-0.95776 0.91894-1.0368 1.8262-1.0368 2.0946v5.0468c0 1.7315 0.77269 2.4242 1.2511 2.6881 1.6065 1.2668 3.8674 1.9367 6.5431 1.9367 1.1626 0 2.2264-0.22809 3.1689-0.67252 5.4488 5.5248 12.999 8.6906 20.754 8.6906 7.5938 0 14.771-2.9014 20.227-8.169h6.5049c0.88634 0 1.659-0.31375 2.2358-0.90812 1.0854-1.1187 1.0386-2.826 1.0363-2.8978v-12.72l-9e-4 -0.14548c0-0.0938-9e-4 -0.2366 5e-3 -0.36634a2.1671 2.1656 0 0 0 1.3742 -0.69266c0.32749-0.3515 0.55976-0.82239 0.69139-1.4019h0.84048c1.3019 0 2.0759-0.57508 2.4973-1.0581 0.96361-1.1062 0.89754-2.6442 0.85037-3.116v-11.297c0-1.1753 0.19586-1.4347 0.44474-1.7629 0.33243-0.43994 0.83602-1.1044 0.83602-2.5306-1e-3 -2.5647-1.8674-3.4958-3.1221-3.4958h-14.744c-5.3827-4.9336-12.365-7.6505-19.677-7.6505zm-9e-4 0.60248c7.199 0 14.074 2.6881 19.357 7.5701a0.29829 0.29808 0 0 0 0.20437 0.07991h14.86c1.0126 0 2.518 0.77036 2.518 2.8924 9e-4 1.2247-0.39583 1.7477-0.71344 2.1683-0.292 0.38472-0.56779 0.74879-0.56779 2.1265v11.311c0 0.01032 9e-4 0.02111 2e-3 0.03144 0.0413 0.39101 0.11141 1.74-0.7035 2.6756-0.33782 0.38833-0.96674 0.85113-2.0418 0.85113h-1.088a0.30233 0.30212 0 0 0 -0.29739 0.25094c-0.0975 0.57776-0.29564 1.0303-0.58809 1.3432a1.5903 1.5892 0 0 1 -1.1923 0.51445l-0.0238 9e-4h-9e-4a0.30233 0.30212 0 0 0 -0.29022 0.24912c-0.0324 0.18316-0.0332 0.44985-0.0324 0.70753l9e-4 0.14366v12.729c2e-3 0.0727 0.0422 1.5326-0.86613 2.4691-0.46046 0.47451-1.0835 0.72497-1.8032 0.72497h-6.6253a0.29964 0.29943 0 0 0 -0.21066 0.0858c-5.3531 5.2115-12.419 8.0824-19.896 8.0824-7.6648 0-15.127-3.1564-20.474-8.661a0.30233 0.30212 0 0 0 -0.35442 -0.0579c-0.90431 0.46553-1.9456 0.70118-3.0943 0.70118-2.5494 0-4.6895-0.63029-6.1895-1.8222a0.25427 0.25409 0 0 0 -0.04587 -0.0305c-0.35714-0.19034-0.95596-0.72505-0.95596-2.1701v-5.0467c0-0.15712 0.04947-0.98361 1.0221-1.815a0.30233 0.30212 0 0 0 0.05385 -0.39819c-0.63522-0.93824-1.9752-3.507-0.70031-7.0714a0.30144 0.30122 0 0 0 -0.28393 -0.40224h-1.5319a0.323 0.32277 0 0 0 -0.05074 0.0045c-1.0392 0.17738-2.5078-0.49694-3.2275-2.9804-0.82165-2.8358-3.1487-11.843-3.2475-12.225l-0.01307-0.05158-0.0063-0.053c-0.03863-0.29763-0.21784-0.96561-0.52916-1.1524-0.584-0.35016-1.0229-1.1321-1.1451-2.0412-0.09704-0.72141-0.06921-2.131 1.208-3.4657l0.23184-0.24195h19.374a0.30099 0.30078 0 0 0 0.20883 -0.08396c5.3351-5.1217 12.349-7.9427 19.75-7.9427zm9e-4 0.78426c-7.6122 0-14.507 3.0652-19.52 8.0271h-19.478c-1.6581 1.7324-0.97977 3.8414-0.22596 4.2935 0.75381 0.45206 0.90476 1.7324 0.90476 1.7324s2.4124 9.3402 3.2412 12.203c0.82928 2.8623 2.4124 2.4107 2.4124 2.4107h3.3167c-2.9398 5.4229 0.67833 8.6618 0.67833 8.6618-1.6581 0.82871-1.6581 1.8078-1.6581 1.8078v5.0468c0 1.3562 0.6029 1.507 0.6029 1.507 0.90476 0.75329 2.6383 1.7315 5.8041 1.7315 1.646 0 2.7407-0.52881 3.4137-1.0374 5.0736 5.5635 12.383 9.0556 20.509 9.0556 7.6841 0 14.64-3.1232 19.663-8.1681h7.0691c1.96 0 1.8845-2.4111 1.8845-2.4111v-12.729c0-0.82826-0.0755-1.8832 1.1312-1.8832 1.2057 0 1.0557-2.1095 1.0557-2.1095h2.11c2.3365 0 1.96-2.7114 1.96-2.7114l-9e-4 -11.374c0-3.0131 1.2812-2.1844 1.2812-4.2935 0-2.109-1.7335-2.109-1.7335-2.109h-15.287c-4.9775-4.7401-11.715-7.6505-19.134-7.6505zm-1.7785 2.4125-1.1932 1.5681 1.7264 1.7984-0.90793 0.12168-1.2439-1.3414-0.28393 0.3829 0.15364 1.143-0.7062 0.09471-0.45373-3.3772 0.70619-0.09431 0.18463 1.3733 1.1051-1.5466zm2.8338 0.01339c0.0163 1.7e-4 0.0327 6.29e-4 0.0493 0.0014 0.37466 0.01796 0.82302 0.28193 0.79651 0.82692-0.0229 0.47855-0.46177 0.70931-0.60283 0.78338l0.45461 0.62039c0.0921-0.12884 0.16578-0.29135 0.20261-0.55083l0.58802 0.02826c-0.0651 0.4579-0.19673 0.71743-0.43797 1.0052l0.5799 0.77392-0.80098-0.0386-0.2183-0.30036c-0.2089 0.18989-0.47797 0.35736-0.99054 0.33267-0.65049-0.03142-1.0409-0.51089-1.0162-1.0182 0.0157-0.32726 0.12081-0.64511 0.70167-0.95935l0.0737-0.03901c-0.13388-0.1679-0.28751-0.43188-0.27358-0.72592 0.0213-0.45011 0.38839-0.74518 0.89407-0.73992zm3.6764 0.36418 1.0072 0.25899-0.0719 2.755 9e-3 0.0022 1.2592-2.4497 0.99777 0.25682-0.84948 3.2995-0.64376-0.16515 0.70978-2.7577-9e-3 -0.0022-1.3266 2.5988-0.67651-0.17374 0.10784-2.9121-9e-3 -0.0027-0.70978 2.7577-0.64417-0.1657zm-3.7025 0.13804c-0.13558 0.0045-0.25224 0.0932-0.26066 0.26196-5e-3 0.11402 0.0728 0.25538 0.22643 0.43854 0.18508-0.10505 0.32434-0.23117 0.33243-0.4067 9e-3 -0.18989-0.1096-0.28597-0.27087-0.2936-9e-3 -4.49e-4 -0.0183-4.94e-4 -0.0273-2.03e-4zm-7.6501 0.34586 2.098 2.9422-0.74396 0.21417-0.40427-0.61458-1.2089 0.34789-0.0342 0.74073-0.72102 0.20741 0.2246-3.6102zm-2.6716 0.85295 0.24936 0.5486-1.6474 0.74701 0.29603 0.65318 1.514-0.68685 0.24888 0.5486-1.5135 0.68685 0.36518 0.80353 1.721-0.78068 0.24936 0.54907-2.3567 1.0689-1.4092-3.103zm2.4874 4.94e-4 -9e-3 0.0027-0.0467 1.4159 0.83514-0.2406zm7.5615 0.202c-0.28975 0.19034-0.41776 0.27923-0.43079 0.54948-6e-3 0.13288 0.0822 0.45565 0.48065 0.4745 0.21833 0.01077 0.41916-0.11263 0.53775-0.21139zm8.9063 0.03137c0.29925 4e-3 0.55941 0.09039 0.71405 0.15941 0.4115 0.18406 1.415 0.84671 0.7614 2.3061-0.65363 1.4594-1.8171 1.1528-2.2286 0.96828-0.4115-0.18406-1.416-0.84664-0.76148-2.3061 0.40853-0.91243 1.0159-1.1345 1.5146-1.1278zm0.0819 0.62911c-0.31494 0.0062-0.67825 0.1911-0.94602 0.78954-0.39083 0.87045 7e-3 1.3082 0.35801 1.4653 0.35084 0.15667 0.94247 0.16116 1.332-0.70929 0.39038-0.87046-7e-3 -1.3086-0.35801-1.4653-0.10964-0.04896-0.24279-0.08307-0.38594-0.08025zm-21.817 0.42502 0.31586 0.51311-0.87783 0.53961 1.4699 2.3887-0.60648 0.37303-1.4703-2.3887-0.87783 0.5392-0.31627-0.51317zm24.751 0.34119 1.4443 0.94002c0.75966 0.49516 0.53327 1.1466 0.3729 1.393-0.20441 0.31424-0.54042 0.48074-0.88453 0.3923 0.16666 0.25633 0.2367 0.42649-0.10966 0.95936-0.27269 0.4175-0.33964 0.52079-0.24395 0.65142l-0.0489 0.07538-0.66088-0.43002c0.0481-0.16071 0.1209-0.32371 0.31228-0.61776 0.25426-0.38966 0.3288-0.5562-0.11325-0.84396l-0.61677-0.40138-0.72825 1.1174-0.58443-0.38074zm0.26282 0.87404-0.49736 0.76317 0.69991 0.45605c0.31087 0.20201 0.53189 0.19307 0.71608-0.0893 0.0979-0.15084 0.17521-0.41794-0.17475-0.64554zm-12.942 0.82237a20.186 20.172 0 0 1 10.84 3.1353h-2.0611a19.146 19.133 0 0 0 -8.7785 -2.1176 19.143 19.129 0 0 0 -8.7789 2.1176h-2.0606a20.187 20.173 0 0 1 10.84 -3.1353zm-15.111 0.15697c0.38167-0.0042 0.67426 0.19855 0.83243 0.38939l-0.53186 0.42962c-0.11052-0.10594-0.38143-0.35065-0.86525 0.04036-0.21024 0.17014-0.39889 0.45032-0.20437 0.6905 0.16711 0.2065 0.37284 0.11357 0.50447 0.04982l0.77446-0.36364c0.43351-0.20381 0.88503-0.32501 1.2705 0.1513 0.6451 0.79683-0.11056 1.5236-0.34326 1.7112-0.9672 0.78202-1.5844 0.35916-1.8504 0.03056l0.53146-0.42874c0.12309 0.14455 0.42404 0.36501 0.90786-0.02555 0.26191-0.21189 0.50315-0.51045 0.27629-0.79102-0.16711-0.2065-0.41148-0.10098-0.74571 0.05929l-0.33784 0.1634c-0.50898 0.24646-1.0004 0.48478-1.4721-0.09836-0.23899-0.29494-0.50131-0.94359 0.35942-1.639 0.32997-0.26663 0.63279-0.36633 0.89394-0.36918zm30.922 0.2911 1.8818 1.6551-0.39806 0.45254-1.3585-1.1946-0.47348 0.53785 1.2475 1.0976-0.39847 0.45247-1.2475-1.0976-0.58355 0.66305 1.4187 1.2475-0.39846 0.45254-1.9425-1.7086zm-15.811 1.1721a18.555 18.542 0 0 1 7.3648 1.5151h-14.73a18.557 18.544 0 0 1 7.3652 -1.5151zm22.997 1.2853c0.0258 2.74e-4 0.0523 0.0016 0.0794 0.0039 0.86702 0.07542 1.8091 0.22582 3.1658 0.03772l5.097 8.0976v-5.3107s0.0665-1.2808-0.87553-1.6197c-1.1994-0.43141-0.86703-1.2808-0.0377-1.1676 0.82928 0.11313 1.6959 0.11307 2.5252 0.03766 0.82929-0.07542 1.0934 0.45206 0.41504 0.9791-0.67924 0.52748-0.79151 0.6779-0.79151 1.7701v12.956s-0.37737 0.52706-0.9425-0.37662c-0.56603-0.90367-6.7089-10.621-6.7089-10.621v8.3234s-0.0755 1.0546 0.90475 1.3185c0.97933 0.26352 1.168 1.3934 0.0746 1.3562-1.0925-0.03771-3.7309-0.03771-4.8994 0.07497-1.168 0.11313-1.0934-0.30128-1.3567-0.94144-0.26415-0.64061-1.7714-4.1431-1.7714-4.1431s-0.1509-0.75371-0.98018-0.75371v3.2771s-0.14194 0.94232 0.56515 1.2808c0.86657 0.41435 0.67878 1.318-0.0377 1.243 0 0-2.6384-0.11307-3.5422-0.03766-0.90476 0.07497-0.867-0.79102-0.3396-1.0545 0.52739-0.26352 0.56514-0.71558 0.56514-1.6197v-8.3611s0.11322-0.60241-0.48965-0.9795c-0.60287-0.37664-0.56514-1.2053 0.18868-1.1676 0.75381 0.03771 2.8638 0.07543 4.1832 0.03772 1.319-0.03771 4.0705 0.33894 4.0705 3.3144 0 0 0.15091 2.3353-1.9978 3.4652 0 0 1.7336 3.6156 1.9978 4.2935 0.26415 0.67787 0.52739 1.0545 1.0557 1.0545 0.5274 0 0.9425-0.33895 0.9425-1.5439v-10.546s0.26325-0.82868-0.90475-1.2807c-1.1324-0.43794-0.95528-1.4059-0.15485-1.3974zm-59.583 0.17949h4.5224s0.85442 0.30166 0.40204 0.85383-0.80364 0.30127-0.60283 1.3558 1.7587 7.5324 1.7587 7.5324l1.9097-6.5282s-0.35174-1.5568-1.1559-1.9083c-0.80368-0.3515-0.80368-1.3055 0-1.3055h4.221s1.3567 0.10056 0.80416 0.90412c0 0-0.95461 0.40136-0.95461 0.85342l2.0602 7.9342 1.7089-6.8294s0.4025-1.1551-0.55257-1.7575c-0.95507-0.60245-0.35172-1.1048 0.15052-1.1048h2.3616s1.0049 0.15084 0.40205 0.90412c-0.60287 0.75329-0.85397 0.85337-1.1055 1.6067l-0.01801 0.05706a1.4106 1.4096 0 0 1 0.42004 -0.05706h6.7843c0 1e-6 0.40164 0.15087 0.40164 1.0047v1.3054s-0.25116 1.1546-1.0553 0.15042c-0.80413-1.0042-1.407-1.5568-1.96-1.5568-0.55255 0-0.80372 0.35194-0.80327 0.95395 0 0.24107-8e-3 1.9083-0.0179 3.8207 0.49685-0.03995 1.1873-0.22261 1.3746-0.90811 0.30144-1.1048 1.407-1.1048 1.407 0.10053v3.0131s-0.84095 1.3733-1.407 0.10059c-0.50269-1.1299-0.51756-1.1789-1.3805-1.1637l-0.0269 5.1307s1.2057 0.80313 2.0602-0.85383 1.7592-1.8576 1.7592-0.30124v1.657s-4e-5 1.0549-1.1056 1.0549h-6.6334s-0.65317-0.45162 0.05033-1.0042c0.7035-0.55262 0.65316-0.55258 0.65316-1.7077v-8.7378s0.25114-0.703-0.40204-0.95395c-0.1442-0.05522-0.26186-0.141-0.34901-0.23932-0.79604 2.8681-3.1181 11.588-3.1181 11.588s-0.30188 0.90412-0.90476 0.90412c-0.60332 0-0.75384 0.30122-1.0553-1.2552-0.30144-1.5569-2.3117-8.3365-2.3117-8.3365l-2.4623 8.8886s-0.20126 0.85382-0.90476 0.85382c-0.70305 0-0.60287-0.30167-0.95462-1.3562-0.35175-1.0545-3.2664-11.851-3.2664-11.851s-0.25112-1.2552-0.90476-1.657c-0.65318-0.40178-0.45193-1.1551 0.20126-1.1551zm28.141 2.2594c1.4573 0 3.0656 0.70297 3.0656 1.9586v1.7072s-0.15052 0.703-0.60289 0.703c-0.45238 0-0.85443-0.45206-1.1056-1.1551-0.25112-0.70301-0.75384-1.9084-1.5076-1.9084s-1.6581 0.65271-0.30138 2.36 4.1203 3.7665 4.1203 6.0263c0 2.2599-1.3063 4.218-3.4173 4.218-2.1105 8.98e-4 -3.7691-0.55125-3.7691-1.5057v-2.1598s0.30146-2.2091 1.4075-0.25094c1.1056 1.9582 1.3567 2.6617 2.3117 2.6617s1.6581-1.5066 0.25159-3.1137c-1.4074-1.6071-4.071-3.4149-4.071-6.2269 0-2.109 1.9097-3.3144 3.6181-3.3144zm5.0251 0.101h6.734s0.70349-7e-6 0.70349 0.95395v2.109s-0.65358 0.65276-1.1563-0.35147c-0.54313-1.0864-0.55261-1.657-1.8091-1.5061v9.5413s-0.0166 1.0132 0.50271 1.2557c0.75381 0.3515 0.65363 1.2552 0 1.2552h-3.8693s-1.0552-0.45211 0-1.1048c0 0 0.57814 3.3e-5 0.57814-1.4567v-9.3905s-0.92945-0.20065-1.332 0.7533c-0.40207 0.95395-0.70301 1.0549-1.0552 1.0549s-0.35179-0.40223-0.35179-0.90412v-1.5065s0.10066-0.703 1.0553-0.703zm8.5431 0.15035h6.7843c0 1e-6 0.40205 0.15087 0.40205 1.0047v1.3054s-0.252 1.1546-1.0557 0.15042c-0.80368-1.0042-1.4075-1.5568-1.96-1.5568s-0.80369 0.35194-0.80369 0.95395c0 0.24107-8e-3 1.9083-0.0175 3.8207 0.49686-0.03995 1.1874-0.22261 1.3742-0.90811 0.30189-1.1048 1.4074-1.1048 1.4074 0.10053v3.0131s-0.84135 1.3733-1.4074 0.10059c-0.50179-1.1299-0.51664-1.1789-1.3801-1.1637l-0.0265 5.1307s1.2058 0.80313 2.0602-0.85383 1.7583-1.8576 1.7583-0.30124v1.657s-5e-5 1.0549-1.1056 1.0549h-6.6334s-0.6527-0.45207 0.0508-1.0042c0.7026-0.55262 0.65269-0.55258 0.65269-1.7077v-8.7378s0.25069-0.703-0.40204-0.95395c-0.65364-0.25095-0.80364-1.1048 0.30192-1.1048zm12.238 1.04c-0.2528-2e-3 -0.42863 0.03969-0.42863 0.03969v4.9341c1.2439 0 2.2232-0.41438 2.2232-2.6742 0-2.0034-1.1485-2.2943-1.7946-2.2995zm-23.818 14.923c0.47542-0.0022 0.91067 0.17429 0.58674 1.0869-0.41465 1.1681-4.146 10.771-4.146 10.771s1.7713 1.0173 2.8266-1.2803c0 0 0.27538-1.0635 0.97978-0.82875 0.56558 0.18855 0.86701 0.3385 0.60331 0.94185-0.26415 0.60245-0.60331 1.8446-0.60331 1.8446s-0.0377 0.64105-0.90476 0.56563c-0.86702-0.0754-3.9573-0.15085-5.0125-0.0377-1.0552 0.11313-0.90475-0.3771-0.90475-0.7533 0-0.37709 0.14334-0.83452 0.56562-1.8078 0.49056-1.1304 3.8831-9.6424 3.8831-9.6424s-1.7335-0.26304-2.4123 0.97957c-0.67835 1.2435-1.3571 1.1304-1.3571 0.15082v-1.6569s0.11321-0.37712 0.97978-0.26399c0.86702 0.11313 3.9577 0.03771 4.5228-0.03771 0.12363-0.01647 0.25994-0.0312 0.39305-0.03183zm7.8679 0c0.47544-0.0022 0.9108 0.17429 0.58721 1.0869-0.41509 1.1681-4.146 10.771-4.146 10.771s1.7718 1.0173 2.8266-1.2803c0 0 0.27631-1.0635 0.98026-0.82875 0.56603 0.18855 0.86696 0.3385 0.60371 0.94185-0.26415 0.60245-0.60371 1.8446-0.60371 1.8446s-0.0377 0.64105-0.90476 0.56563c-0.86702-0.0754-3.9573-0.15085-5.0125-0.0377-1.0552 0.11313-0.90476-0.3771-0.90476-0.7533 0-0.37709 0.14283-0.83452 0.56556-1.8078 0.49011-1.1304 3.8818-9.6424 3.8818-9.6424s-1.7336-0.26304-2.4119 0.97957c-0.67834 1.2435-1.3571 1.1304-1.3571 0.15082v-1.6569s0.11321-0.37712 0.97978-0.26399c0.86702 0.11313 3.9578 0.03771 4.5229-0.03771 0.12363-0.01647 0.25986-0.0312 0.39298-0.03183zm15.829 0.02487c0.0251 2.79e-4 0.0508 0.0018 0.0771 4e-3 0.84321 0.07272 1.7592 0.21906 3.0782 0.03591l4.9555 7.8727v-5.1626s0.0642-1.2449-0.85179-1.5748c-1.1662-0.42018-0.84227-1.2449-0.0368-1.1353 0.80637 0.11043 1.6486 0.11046 2.455 0.03686 0.80637-0.07272 1.0625 0.43946 0.40347 0.95212-0.65993 0.51312-0.76959 0.65948-0.76959 1.7212v12.595s-0.36658 0.5122-0.91599-0.36634c-0.55031-0.87853-6.5228-10.325-6.5228-10.325v8.0918s-0.0728 1.0249 0.88006 1.2812c0.95283 0.25678 1.1352 1.3558 0.0728 1.3189 0 0-1.9875-0.10687-2.6716-9e-3 -0.68328 0.0974-0.66484-0.68952-0.0395-0.97997 0.46495-0.21548 0.91598-0.32951 0.91598-1.5012v-10.252s0.2561-0.8058-0.87911-1.2448c-1.1006-0.42575-0.92848-1.3672-0.15086-1.3587zm-10.03 0.02325c0.57021 8.98e-4 0.75123 0.62066 0.37586 0.9624-0.41419 0.37709-0.79157 0.30211-0.79157 1.2435v8.5487s-0.0377 0.82962 0.75382 0.82962c0.79155 0 1.2821-0.67878 1.6959-1.5824 0.41509-0.90413 0.5274-0.71554 0.90476-0.60241 0.37645 0.11313 0.60284 0.18849 0.4519 0.75323-0.15005 0.56474-0.41416 1.8078-0.41416 1.8078s-0.0755 0.97954-1.1312 0.86641-3.7686-0.0754-5.1635 0.0754c-1.3944 0.15084-0.90478-0.82876-0.41422-1.055 0.48966-0.22536 0.56515-0.90413 0.56515-1.4312v-8.098s0.0377-0.90408-0.56515-1.1294c-0.60287-0.22626-0.64057-1.2435 0.26329-1.1304 0.90565 0.11313 2.5628 0.11312 3.2798-0.03771 0.0671-0.01414 0.1303-0.02065 0.18929-0.02056zm-21.67 0.0158c0.5535-0.01033 0.62368 0.57118 0.26086 0.83436-0.41464 0.30123-0.49012 0.60195-0.49012 0.82821v9.0022s-0.15048 0.86641 0.49012 1.2426c0.64061 0.3771 0.49013 0.97951-0.15093 0.97951-0.6406 0-2.2614-0.0754-3.2412 0.0377-0.98023 0.11313-0.98028-0.60244-0.4147-1.055 0.56558-0.45161 0.4147-1.3558 0.4147-1.8078v-7.8331s-0.0378-1.0549-0.52788-1.2058c-0.49011-0.15084-0.56514-1.055 0.18867-0.94185 0.75382 0.11313 2.412 0.18853 3.2035-0.03771 0.0989-0.02828 0.18787-0.04184 0.26694-0.04332zm29.655 0c0.55351-0.01033 0.62375 0.57118 0.26133 0.83436-0.41509 0.30123-0.49053 0.60195-0.49053 0.82821v9.0022s-0.15097 0.86641 0.49053 1.2426c0.64061 0.3771 0.48968 0.97951-0.15092 0.97951-0.64061 0-2.2619-0.0754-3.2412 0.0377-0.98023 0.11313-0.98024-0.60244-0.41511-1.055 0.56514-0.45161 0.41511-1.3558 0.41511-1.8078v-7.8331s-0.0377-1.0549-0.52829-1.2058c-0.48966-0.15084-0.56513-1.055 0.18868-0.94185s2.4119 0.18853 3.2034-0.03771c0.099-0.02828 0.18788-0.04184 0.26695-0.04332zm-38.774 0.05774c1.6469 0 3.464 0.77615 3.464 2.1611v1.885s-0.17021 0.77615-0.68144 0.77615-0.96545-0.49874-1.2494-1.2749c-0.28392-0.77619-0.85176-2.1059-1.7035-2.1059-0.85175 0-1.8737 0.72007-0.34096 2.6051 1.5337 1.8841 4.6568 4.157 4.6568 6.6503 0 2.4946-1.4762 4.6558-3.8616 4.6558-2.385 4.4e-4 -4.2592-0.6092-4.2592-1.6624v-2.3834s0.34056-2.4394 1.5903-0.27697c1.2493 2.1611 1.5332 2.9373 2.6122 2.9373 1.0791 0 1.8738-1.6624 0.28393-3.4361-1.5903-1.7737-4.5997-3.7691-4.6001-6.8734 0-2.3281 2.1581-3.6577 4.0889-3.6577zm12.07 15.277h1.9164a19.145 19.132 0 0 0 9.592 2.5612 19.145 19.132 0 0 0 9.5916 -2.5612h1.9165c-3.2691 2.2563-7.234 3.5784-11.508 3.5784a20.188 20.174 0 0 1 -11.508 -3.5784zm3.1908 0h16.634a18.546 18.533 0 0 1 -8.3171 1.9578 18.546 18.533 0 0 1 -8.3171 -1.9578zm-6.0004 1.5394 1.4146 0.98356c0.74438 0.51806 0.49821 1.1627 0.3302 1.4038-0.21429 0.30751-0.55484 0.46373-0.89671 0.36452 0.15948 0.26127 0.22421 0.43412-0.13922 0.95577-0.28481 0.40986-0.35539 0.51038-0.26329 0.64372l-0.0516 0.0746-0.64694-0.45071c0.053-0.15981 0.13027-0.31923 0.33108-0.60788 0.2655-0.38159 0.34548-0.54629-0.0871-0.84707l-0.60426-0.42022-0.76228 1.0945-0.57279-0.39913zm28.242 0.30435 0.33332 0.50237-0.85984 0.56921 1.5503 2.3375-0.5939 0.39372-1.5494-2.3385-0.86031 0.56882-0.33244-0.50236zm-28.006 0.57598-0.52111 0.74789 0.68597 0.47674c0.30413 0.21234 0.52512 0.20964 0.71784-0.0665 0.10332-0.14814 0.18872-0.4121-0.15404-0.65048zm2.4838 0.95307 2.2331 1.1389-0.27405 0.53778-1.6114-0.82239-0.32615 0.63831 1.4802 0.75466-0.27399 0.5369-1.4803-0.75506-0.40157 0.78649 1.6833 0.85836-0.27453 0.53643-2.305-1.1757zm22.994 0.12655 1.4968 3.0617-0.64064 0.31199-2.3171-1.5731-9e-3 5e-3 1.0669 2.1831-0.59661 0.29225-1.4968-3.0621 0.67386-0.32862 2.2583 1.538 9e-3 -4e-3 -1.0422-2.1314zm-19.785 1.406c0.0185-4.1e-4 0.0373-3.9e-4 0.0565 0 0.17167 4e-3 0.36974 0.0397 0.59783 0.1204 0.98471 0.34791 1.0207 1.0855 0.88547 1.481l-0.64511-0.22803c0.0328-0.14994 0.0997-0.50868-0.48654-0.71653-0.25517-0.0902-0.59253-0.10321-0.69586 0.18679-0.0889 0.25095 0.0979 0.37711 0.22149 0.45612l0.7152 0.46998c0.40072 0.26217 0.73986 0.58408 0.53545 1.1609-0.34231 0.96608-1.3576 0.70213-1.6392 0.60336-1.173-0.4157-1.1348-1.1628-0.99324-1.561l0.64376 0.22897c-0.0588 0.17957-0.0899 0.55171 0.49635 0.75911 0.31806 0.11223 0.69858 0.16121 0.81897-0.17772 0.089-0.25095-0.1289-0.4032-0.44067-0.60431l-0.31586-0.2024c-0.47664-0.30527-0.93665-0.59888-0.68598-1.3055 0.0959-0.27079 0.35779-0.65863 0.93148-0.67123zm15.9 0.29819 2.1891 2.8744-0.73583 0.2375-0.4241-0.6016-1.1977 0.38608-0.0103 0.74072-0.71432 0.23073 0.11055-3.616zm-13.81 0.41658 2.7097 0.58943-0.12799 0.58895-1.0068-0.21903-0.59702 2.7406-0.69585-0.15129 0.59661-2.7402-1.0068-0.21909zm10.838 0.40419c0.70839-0.014 0.93993 0.52936 0.98512 0.79217 0.0629 0.36946-0.0696 0.7192-0.38277 0.88844 0.2965 0.0745 0.4641 0.15169 0.57192 0.77838 0.0845 0.49112 0.10463 0.61326 0.26411 0.64379l0.0148 0.0884-0.77669 0.13332c-0.0746-0.1513-0.13253-0.31962-0.19138-0.66528-0.0791-0.45835-0.13703-0.63116-0.65635-0.54273l-0.72548 0.12433 0.2246 1.3144-0.6878 0.11764-0.57496-3.3597 1.6994-0.29002c0.0838-0.0143 0.16214-0.0217 0.23543-0.0232zm2.8148 0.038-9e-3 2e-3 -2e-3 1.4172 0.8275-0.26663zm-10.117 0.22174 0.81715 0.0822 0.85219 3.511-0.77047-0.0781-0.14599-0.72099-1.2525-0.12615-0.30679 0.67515-0.74665-0.0754zm4.8212 0.10911 0.0647 2.2159c0.0256 0.89604-0.50449 1.296-1.3634 1.3202-0.31312 9e-3 -0.78075-0.0534-1.0943-0.38155-0.19138-0.20336-0.27136-0.47633-0.29023-0.81706l-0.0651-2.2585 0.72642-0.0202 0.0642 2.2105c0.013 0.47451 0.29476 0.67516 0.62719 0.66528 0.48877-0.0139 0.68101-0.2568 0.66933-0.66981l-0.0652-2.2437zm2.3495 0.24601c-0.043-4.2e-4 -0.09 3e-3 -0.14153 0.0121l-0.87465 0.14994 0.15364 0.89784 0.82391-0.14095c0.36478-0.0624 0.52106-0.21953 0.46401-0.55083-0.0263-0.15594-0.12488-0.36514-0.42538-0.3681zm-6.8513 0.44983-0.5705 1.2965 0.86478 0.088-0.28481-1.3836z" fill="#fff" stroke-width=".44908"/>
</g>
</g>
</svg>
